<?xml version="1.0" encoding="UTF-8"?>
<svg version="1.1" xmlns="http://www.w3.org/2000/svg" width="500" height="500">
<path d="M0 0 C0.54140625 0.31710937 1.0828125 0.63421875 1.640625 0.9609375 C2.19234375 1.26257813 2.7440625 1.56421875 3.3125 1.875 C6.93244455 5.22613679 8.07144083 9.17492571 8.27157593 13.96533203 C8.28931785 15.79972048 8.29064101 17.63431392 8.27880859 19.46875 C8.28669403 20.97716461 8.28669403 20.97716461 8.29473877 22.51605225 C8.30791332 25.83117326 8.29920944 29.14581183 8.2890625 32.4609375 C8.29108396 34.76969495 8.293996 37.07845177 8.29776001 39.38720703 C8.30217993 44.22239266 8.29576283 49.05741186 8.28173828 53.89257812 C8.2646468 60.08661141 8.27448973 66.2802547 8.29245567 72.47427368 C8.30330236 77.2406711 8.29984306 82.00697625 8.2920723 86.77337646 C8.29007275 89.05710903 8.29252094 91.34085001 8.29951096 93.62457275 C8.30713976 96.81764889 8.29550058 100.01009567 8.27880859 103.203125 C8.28488129 104.14460388 8.29095398 105.08608276 8.29721069 106.05609131 C8.23631271 112.35250754 7.36783326 116.83051438 2.76855469 121.48217773 C-1.02666199 123.92678922 -4.93331987 125.43620143 -9.15625 126.99609375 C-10.05795929 127.33783127 -10.95966858 127.67956879 -11.88870239 128.03166199 C-13.84598268 128.77230532 -15.8048415 129.50878752 -17.76507568 130.24157715 C-22.00963296 131.82848246 -26.24645177 133.43560289 -30.48397827 135.04116821 C-32.70413715 135.88205331 -34.92470439 136.72186099 -37.1456604 137.56063843 C-47.45300705 141.45498663 -57.72843235 145.42915776 -67.99719238 149.4239502 C-73.09346262 151.40635371 -78.19128714 153.38475206 -83.2890625 155.36328125 C-84.32579102 155.76572052 -85.36251953 156.16815979 -86.43066406 156.58279419 C-98.98400539 161.45413392 -111.54658273 166.30153503 -124.109375 171.1484375 C-125.29129425 171.60448364 -126.4732135 172.06052979 -127.69094849 172.53039551 C-138.03571872 176.52188223 -148.38091989 180.51225154 -158.72624779 184.50229263 C-161.86048076 185.71112887 -164.99469711 186.9200082 -168.12890625 188.12890625 C-168.74644901 188.36709579 -169.36399178 188.60528534 -170.00024796 188.85069275 C-180.14735174 192.76458364 -190.29309906 196.68197828 -200.43795776 200.60168457 C-206.56048619 202.96687746 -212.68463234 205.32778658 -218.81083679 207.68344116 C-222.22003751 208.9951952 -225.62784199 210.31054461 -229.0352478 211.62695312 C-230.56067415 212.21535504 -232.08671772 212.80215981 -233.61343384 213.38720703 C-235.66061608 214.17188066 -237.70554599 214.96215702 -239.75 215.75390625 C-240.86922852 216.18469482 -241.98845703 216.6154834 -243.14160156 217.05932617 C-248.38987147 219.2404752 -248.38987147 219.2404752 -252.40307617 223.09985352 C-253.92957351 227.93261851 -253.44101721 233.15865895 -253.42504883 238.18041992 C-253.42189023 240.26339113 -253.44536019 242.3449387 -253.47070312 244.42773438 C-253.47134766 245.74708984 -253.47199219 247.06644531 -253.47265625 248.42578125 C-253.47563721 249.63097412 -253.47861816 250.83616699 -253.48168945 252.07788086 C-253.07677938 255.62117593 -252.20691511 257.48647957 -250.109375 260.3359375 C-246.59674733 263.06798124 -242.35925492 262.79031464 -238.109375 262.3359375 C-234.52458123 261.36235598 -231.12098366 260.01036653 -227.67578125 258.62890625 C-226.66674744 258.23689026 -225.65771362 257.84487427 -224.61810303 257.440979 C-221.29765647 256.14762746 -217.98494641 254.8355529 -214.671875 253.5234375 C-212.33343992 252.60879351 -209.99448271 251.69548343 -207.6550293 250.78344727 C-202.83055308 248.90064502 -198.0089163 247.01083092 -193.18945312 245.11523438 C-186.63398967 242.5385848 -180.06944004 239.98608879 -173.5 237.4453125 C-172.49589584 237.05692703 -171.49179169 236.66854156 -170.45726013 236.26838684 C-168.44767527 235.49117159 -166.43806746 234.71401565 -164.42843628 233.93692017 C-159.36869803 231.97889663 -154.31132954 230.01477472 -149.25390625 228.05078125 C-141.12702637 224.89526563 -132.99950399 221.7414153 -124.87109375 218.58984375 C-123.35268639 218.00111732 -123.35268639 218.00111732 -121.80360413 217.40049744 C-117.7245028 215.818979 -113.64536702 214.23754946 -109.56619263 212.65621948 C-97.01672672 207.79128326 -84.46864039 202.92282785 -71.92285156 198.04841614 C-63.7138553 194.85978326 -55.50066956 191.6820647 -47.28613281 188.50773621 C-42.20250064 186.54106536 -37.12573646 184.55857124 -32.05828857 182.55056763 C-29.35269246 181.48023076 -26.64288978 180.42087796 -23.93200684 179.36401367 C-22.18907158 178.67972685 -20.45227178 177.97987384 -18.71582031 177.27929688 C-12.53339408 174.88095863 -7.7495197 173.72693015 -1.109375 174.3359375 C3.2087512 176.2551047 4.55178013 177.59883499 6.53042603 181.90306091 C8.16500723 186.55439273 8.31421293 190.86929478 8.27880859 195.76196289 C8.28669403 197.12210258 8.28669403 197.12210258 8.29473877 198.50971985 C8.30786152 201.48452361 8.29922885 204.45878526 8.2890625 207.43359375 C8.29108528 209.51289471 8.29399841 211.59219498 8.29776001 213.67149353 C8.30217275 218.01975285 8.29578542 222.36782675 8.28173828 226.71606445 C8.26463648 232.27995319 8.27450071 237.84340804 8.29245567 243.40728092 C8.30331273 247.69761913 8.29983851 251.987855 8.2920723 256.27819633 C8.29007616 258.32944223 8.29250888 260.38069753 8.29951096 262.43193245 C8.30715819 265.30130651 8.29547576 268.16998423 8.27880859 271.03930664 C8.28488129 271.88054077 8.29095398 272.7217749 8.29721069 273.58850098 C8.24020893 278.90489914 7.41266405 282.62599901 4.890625 287.3359375 C0.24534788 291.29673573 -5.33737903 293.17193134 -10.9921875 295.27734375 C-11.95225708 295.64172546 -12.91232666 296.00610718 -13.90148926 296.38153076 C-15.95128073 297.15865495 -18.00232487 297.93248173 -20.05450439 298.70327759 C-23.25079365 299.90460848 -26.44303959 301.11612976 -29.63427734 302.33081055 C-37.41042249 305.28940486 -45.1906265 308.23718679 -52.9765625 311.16992188 C-55.71097563 312.2004036 -58.44279437 313.23716229 -61.17138672 314.28295898 C-63.47600233 315.16617915 -65.78471019 316.03882554 -68.09814453 316.89868164 C-74.17113507 319.23912101 -79.0663642 321.24991591 -82.109375 327.3359375 C-82.21154814 330.41630643 -82.25301243 333.47486654 -82.2512207 336.55566406 C-82.25469513 337.51192184 -82.25816956 338.46817963 -82.26174927 339.45341492 C-82.26911378 341.53507147 -82.27445544 343.61673591 -82.27803993 345.6984024 C-82.28519315 348.99355981 -82.30085161 352.28856723 -82.31938171 355.5836792 C-82.37190209 364.95436534 -82.41982682 374.32497066 -82.43530273 383.69580078 C-82.44538354 389.42355238 -82.47471304 395.15092895 -82.51662254 400.87853241 C-82.52893813 403.06175652 -82.53405279 405.24503361 -82.53182411 407.42829132 C-82.52947156 410.48547878 -82.55163562 413.54159069 -82.5793457 416.59863281 C-82.57274429 417.49964218 -82.56614288 418.40065155 -82.55934143 419.32896423 C-82.64308105 424.95984454 -83.4742026 427.98610261 -87.109375 432.3359375 C-88.85229492 433.81567383 -88.85229492 433.81567383 -90.65234375 434.85546875 C-91.69914307 435.46189209 -91.69914307 435.46189209 -92.76708984 436.08056641 C-97.27096035 438.49446073 -101.83298104 440.77609384 -106.421875 443.0234375 C-113.74226578 446.64372163 -121.02931359 450.30358772 -128.234375 454.1484375 C-137.81679386 459.25286346 -147.53652962 464.07983815 -157.26611328 468.89575195 C-158.49264601 469.50445216 -159.71904737 470.11341713 -160.9453125 470.72265625 C-161.84160118 471.16668793 -161.84160118 471.16668793 -162.7559967 471.61968994 C-168.01711976 474.24562394 -173.13897091 477.08625051 -178.2487793 479.99462891 C-182.59781163 482.03385257 -186.44200014 482.39286116 -191.109375 481.3359375 C-196.17227535 478.94256643 -197.98866133 476.42352409 -200.109375 471.3359375 C-200.48689842 468.13124847 -200.48689842 468.13124847 -200.49032593 464.61853027 C-200.4950059 463.96835229 -200.49968587 463.31817431 -200.50450766 462.64829397 C-200.51641331 460.48341685 -200.50701842 458.31917798 -200.49755859 456.15429688 C-200.50162629 454.59666069 -200.50696928 453.03902739 -200.51348877 451.48139954 C-200.52714473 447.26034 -200.52187087 443.03950088 -200.51235151 438.81843758 C-200.50474599 434.39697814 -200.51180301 429.97553734 -200.51651001 425.55407715 C-200.52196496 418.12960428 -200.51478279 410.70522099 -200.50048828 403.28076172 C-200.48416225 394.7021846 -200.48945095 386.1238214 -200.5059675 377.54524946 C-200.51958979 370.17437648 -200.52149839 362.80356783 -200.51365149 355.43268633 C-200.50897906 351.03278123 -200.50833829 346.63297661 -200.51826096 342.233078 C-200.52693917 338.09616795 -200.52089321 333.95953319 -200.50357819 329.82265282 C-200.49961789 328.30614364 -200.50073957 326.78961122 -200.50736618 325.27311134 C-200.51559029 323.19954507 -200.50525103 321.12685547 -200.49032593 319.05334473 C-200.48919485 317.89414772 -200.48806377 316.73495071 -200.48689842 315.54062653 C-199.93484928 310.85443831 -198.31261846 307.53918096 -194.984375 304.2109375 C-189.03780122 300.33273721 -183.38485666 297.35654574 -176.109375 298.3359375 C-171.9882087 300.15691796 -169.67563574 302.66985073 -167.109375 306.3359375 C-166.16798326 309.16011273 -165.98464921 310.87211144 -165.98480225 313.79438782 C-165.98223923 314.70698364 -165.97967621 315.61957947 -165.97703552 316.55982971 C-165.97913528 317.55884811 -165.98123505 318.55786652 -165.98339844 319.5871582 C-165.9815303 320.64109772 -165.97966217 321.69503723 -165.97773743 322.78091431 C-165.97373032 325.07263761 -165.9716583 327.36436492 -165.97127533 329.65609169 C-165.96786459 334.52588799 -165.94650885 339.3955502 -165.92604446 344.2652998 C-165.88799176 353.33630821 -165.85676148 362.40717418 -165.85888672 371.47827148 C-165.85967313 377.78427037 -165.83633928 384.08977974 -165.7970047 390.39565086 C-165.786532 392.79937732 -165.78502993 395.20316018 -165.79265594 397.60689735 C-165.80226297 400.97064929 -165.78112107 404.33291546 -165.75292969 407.6965332 C-165.76312637 408.68947891 -165.77332306 409.68242462 -165.78382874 410.70545959 C-165.71617877 415.20682795 -165.58573208 418.35311129 -162.69415283 421.93840027 C-159.14585202 425.22966314 -157.15371366 425.65927243 -152.29833984 425.59033203 C-148.58887608 425.15922995 -145.65992133 423.55288618 -142.421875 421.7734375 C-141.73778564 421.41137207 -141.05369629 421.04930664 -140.34887695 420.67626953 C-138.94701767 419.93253193 -137.54845832 419.18253999 -136.15332031 418.42626953 C-134.21685121 417.39327013 -132.26255348 416.41698261 -130.2890625 415.45703125 C-129.13664063 414.88082031 -127.98421875 414.30460937 -126.796875 413.7109375 C-125.76949219 413.20304687 -124.74210938 412.69515625 -123.68359375 412.171875 C-120.38518067 409.81944079 -119.58210712 408.1214782 -118.109375 404.3359375 C-117.69297902 401.04632759 -117.71248657 397.79082249 -117.74047852 394.47851562 C-117.73671204 393.5021666 -117.73294556 392.52581757 -117.72906494 391.5198822 C-117.72264465 389.40665139 -117.72295104 387.2933917 -117.72924995 385.18016052 C-117.73837133 381.83414441 -117.72812442 378.4886873 -117.71263123 375.1427002 C-117.672557 365.63208871 -117.67133099 356.12152172 -117.67358398 346.61083984 C-117.67363508 340.78774899 -117.65447242 334.96496051 -117.62425041 329.14195251 C-117.6134238 325.84805809 -117.62555579 322.55474018 -117.63807678 319.26086426 C-117.62917248 317.23835683 -117.61909814 315.2158541 -117.60766602 313.19335938 C-117.61740952 312.27993271 -117.62715302 311.36650604 -117.63719177 310.42539978 C-117.57524515 304.93139903 -116.89406032 301.61829195 -113.109375 297.3359375 C-111.13053894 296.02372742 -111.13053894 296.02372742 -109.03588867 295.2253418 C-107.85052017 294.75600723 -107.85052017 294.75600723 -106.64120483 294.27719116 C-105.80570099 293.96657745 -104.97019714 293.65596375 -104.109375 293.3359375 C-103.27121246 293.00268463 -102.43304993 292.66943176 -101.56948853 292.32608032 C-98.81574999 291.23164455 -96.0519548 290.16643056 -93.28515625 289.10546875 C-92.2624614 288.71074875 -91.23976654 288.31602875 -90.18608093 287.90934753 C-86.93217554 286.65354509 -83.67717334 285.40062434 -80.421875 284.1484375 C-71.97573147 280.89952571 -63.53655765 277.63374526 -55.109375 274.3359375 C-54.05683533 273.92567322 -53.00429565 273.51540894 -51.91986084 273.0927124 C-48.86754209 271.89778795 -45.82167866 270.6877561 -42.77734375 269.47265625 C-41.85931473 269.11484573 -40.94128571 268.75703522 -39.99543762 268.38838196 C-34.85174119 266.31309402 -30.70753794 264.53226339 -28.109375 259.3359375 C-27.82862564 255.26898099 -27.79573034 251.20035025 -27.75927734 247.12451172 C-27.74276112 245.77244807 -27.71552734 244.42047018 -27.67724609 243.06884766 C-27.08542307 234.24269843 -27.08542307 234.24269843 -30.5078125 226.4765625 C-34.59362393 223.11466361 -36.81038759 223.0017253 -42.109375 223.3359375 C-45.00966161 224.09559423 -47.75534659 225.16652868 -50.5390625 226.2734375 C-51.34897141 226.5846907 -52.15888031 226.89594391 -52.99333191 227.21662903 C-55.66147719 228.24525692 -58.32279178 229.29046021 -60.984375 230.3359375 C-62.87388176 231.06829762 -64.76378153 231.79964452 -66.65405273 232.5300293 C-71.53555801 234.41959693 -76.41145882 236.32318201 -81.28570557 238.23138428 C-85.61395199 239.92449271 -89.94583099 241.60823905 -94.27734375 243.29296875 C-100.98587191 245.90432852 -107.69092709 248.52446679 -114.39453125 251.1484375 C-125.95661269 255.6730326 -137.53235645 260.16222713 -149.109375 264.6484375 C-151.17586349 265.44937929 -153.24235112 266.25032331 -155.30883789 267.05126953 C-162.62396019 269.88628486 -169.93942307 272.72042096 -177.25488281 275.55456543 C-183.51106601 277.97837483 -189.76711212 280.40253744 -196.02294922 282.82723999 C-198.07140816 283.62115556 -200.11991038 284.41495947 -202.16845703 285.20864868 C-213.11356223 289.44948121 -224.0544673 293.70060254 -234.984375 297.98046875 C-235.9321582 298.35137131 -236.87994141 298.72227386 -237.85644531 299.10441589 C-242.3169152 300.85012301 -246.77649849 302.59802268 -251.234375 304.3503418 C-252.81767453 304.97062666 -254.40100602 305.59082993 -255.984375 306.2109375 C-256.67901855 306.48504959 -257.37366211 306.75916168 -258.08935547 307.0415802 C-261.65556686 308.43556451 -265.24089729 309.76764636 -268.85546875 311.03125 C-269.92559204 311.40660889 -269.92559204 311.40660889 -271.01733398 311.78955078 C-274.8009664 312.77773719 -277.30522265 312.33374795 -281.109375 311.3359375 C-284.56542336 309.24728219 -286.80169148 307.25898806 -288.109375 303.3359375 C-288.20961224 301.94318828 -288.257045 300.54625488 -288.27000427 299.14996338 C-288.28507271 297.871586 -288.28507271 297.871586 -288.30044556 296.56738281 C-288.30627655 295.63539063 -288.31210754 294.70339844 -288.31811523 293.74316406 C-288.32789902 292.75910583 -288.3376828 291.77504761 -288.34776306 290.76116943 C-288.37771439 287.49964756 -288.39910143 284.23816666 -288.41796875 280.9765625 C-288.42454058 279.86272942 -288.4311124 278.74889633 -288.43788338 277.60131073 C-288.47047531 271.70589976 -288.49492702 265.81050686 -288.5144043 259.91503906 C-288.53222159 255.03586554 -288.56704984 250.15726947 -288.61694336 245.27832031 C-288.67711596 239.38740831 -288.70787614 233.49703203 -288.71757698 227.60582733 C-288.72613735 225.36193358 -288.7449696 223.11805436 -288.7743206 220.87433624 C-288.81322667 217.73101901 -288.81427041 214.58978987 -288.80639648 211.44628906 C-288.82639709 210.5223938 -288.84639771 209.59849854 -288.86700439 208.64660645 C-288.80311731 202.9551137 -287.76325299 199.77214633 -283.71749401 195.68863869 C-281.67985003 193.97463406 -279.80432145 192.88503962 -277.30541992 191.95922852 C-276.39553314 191.61036087 -275.48564636 191.26149323 -274.54818726 190.90205383 C-273.5719339 190.55152451 -272.59568054 190.20099518 -271.58984375 189.83984375 C-270.55574371 189.44939377 -269.52164368 189.05894379 -268.45620728 188.65666199 C-265.07649692 187.38503625 -261.68697424 186.14206906 -258.296875 184.8984375 C-255.93298992 184.01365547 -253.56995987 183.12658589 -251.20776367 182.23730469 C-246.43403642 180.44154866 -241.65720986 178.65445628 -236.87792969 176.87353516 C-228.3507906 173.68737163 -219.87013778 170.3863279 -211.39761353 167.0581665 C-208.07440429 165.75313353 -204.74900945 164.45371628 -201.42372131 163.1539917 C-198.95622639 162.18938731 -196.48905447 161.22396121 -194.02197266 160.25830078 C-185.71949209 157.00894751 -177.41466647 153.76559833 -169.109375 150.5234375 C-167.85478989 150.03364914 -167.85478989 150.03364914 -166.57485962 149.53396606 C-152.42699428 144.01162052 -138.26989811 138.51323495 -124.109375 133.0234375 C-123.0952655 132.63017273 -122.08115601 132.23690796 -121.03631592 131.83172607 C-110.39959013 127.70692839 -99.76138737 123.58603328 -89.11798096 119.47850037 C-84.71415189 117.77861367 -80.31114153 116.07661224 -75.90820312 114.37442017 C-73.83276546 113.5727225 -71.75693478 112.77204135 -69.68066406 111.97250366 C-63.14538689 109.45575843 -56.62065148 106.91416355 -50.109375 104.3359375 C-49.19458374 103.97514099 -48.27979248 103.61434448 -47.33728027 103.24261475 C-44.67983762 102.18756982 -42.03038561 101.11469506 -39.3828125 100.03515625 C-38.58863922 99.72101273 -37.79446594 99.4068692 -36.97622681 99.08320618 C-31.59962522 96.86930098 -31.59962522 96.86930098 -28.109375 92.3359375 C-26.18775176 87.12238732 -26.8846969 81.07259112 -26.86914062 75.60131836 C-26.8594549 73.54043908 -26.82841422 71.48056663 -26.796875 69.41992188 C-26.67744573 58.61263042 -26.67744573 58.61263042 -31.734375 49.3984375 C-36.87113204 47.10041461 -42.5292865 47.92132704 -47.72460938 49.73095703 C-49.39022539 50.3780401 -51.04948786 51.04164041 -52.703125 51.71875 C-53.62382278 52.08095642 -54.54452057 52.44316284 -55.49311829 52.81634521 C-58.53755483 54.01737582 -61.5731794 55.23924114 -64.609375 56.4609375 C-66.75283248 57.31044109 -68.89697204 58.15822541 -71.04174805 59.00439453 C-74.44624081 60.34800115 -77.85014442 61.69296639 -81.25187683 63.04354858 C-90.01408219 66.52134725 -98.79888838 69.9364461 -107.59765625 73.3203125 C-108.56025927 73.69064669 -108.56025927 73.69064669 -109.54230881 74.06846237 C-113.37582023 75.5431127 -117.20982342 77.01648101 -121.04397583 78.48946381 C-126.42756842 80.5577966 -131.81003681 82.62901533 -137.19140625 84.703125 C-138.2208284 85.09828308 -139.25025055 85.49344116 -140.31086731 85.90057373 C-142.26737398 86.65507052 -144.22128884 87.41633019 -146.17227173 88.18499756 C-148.24414638 88.99688705 -150.32486711 89.78637605 -152.41146851 90.55963135 C-153.48571075 90.97323914 -154.559953 91.38684692 -155.66674805 91.81298828 C-156.63815231 92.17723907 -157.60955658 92.54148987 -158.61039734 92.91677856 C-162.15936121 94.93222027 -163.50840175 97.55628956 -164.7902832 101.35229492 C-165.15545059 103.62236762 -165.21916654 105.77472329 -165.21484375 108.07421875 C-165.22966797 108.97720703 -165.24449219 109.88019531 -165.25976562 110.81054688 C-165.28434996 112.69060169 -165.289803 114.57101157 -165.27539062 116.45117188 C-165.41348369 122.33895807 -166.2813639 125.77286718 -170.49829102 129.99731445 C-174.96253148 133.70657805 -180.59700237 135.49372763 -186.359375 135.8359375 C-191.51110763 135.14903982 -194.44968033 133.34064151 -197.75244141 129.35131836 C-199.77172191 124.86406872 -199.53786513 120.64420043 -199.5078125 115.77734375 C-199.51068268 114.75543442 -199.51355286 113.73352509 -199.51651001 112.6806488 C-199.51854824 110.52301478 -199.51303526 108.36536218 -199.50048828 106.20776367 C-199.48444823 102.91347697 -199.50033715 99.62042023 -199.51953125 96.32617188 C-199.51754845 94.2265598 -199.51370402 92.12694849 -199.5078125 90.02734375 C-199.51388519 89.04592911 -199.51995789 88.06451447 -199.5262146 87.05335999 C-199.45934611 80.51687594 -198.7760711 76.04508014 -194.00805664 71.20117188 C-190.10779084 68.69144133 -186.06017333 67.12130658 -181.73046875 65.4921875 C-180.7924794 65.13094284 -179.85449005 64.76969818 -178.88807678 64.39750671 C-175.77751745 63.20184757 -172.66225162 62.01898183 -169.546875 60.8359375 C-167.33821117 59.98955008 -165.12988379 59.14228424 -162.921875 58.29418945 C-158.29979561 56.52036922 -153.67584219 54.75156831 -149.05029297 52.98681641 C-142.46268895 50.47273438 -135.8807002 47.94427442 -129.30078125 45.41015625 C-127.18855919 44.59675782 -125.07633588 43.78336264 -122.96411133 42.9699707 C-121.91736237 42.56686676 -120.8706134 42.16376282 -119.79214478 41.7484436 C-115.50707664 40.0991774 -111.22088194 38.45284953 -106.93473816 36.80638123 C-96.28556328 32.71525708 -85.64086948 28.61266732 -75 24.5 C-73.7207881 24.00569239 -72.44157261 23.51139408 -71.16235352 23.0171051 C-65.05491012 20.65705349 -58.94797316 18.29570178 -52.84179688 15.93237305 C-47.34924637 13.80741156 -41.85212949 11.69457612 -36.35327148 9.58599854 C-33.01546038 8.29974676 -29.68449215 6.99670738 -26.35351562 5.69287109 C-24.19420408 4.85854808 -22.03470628 4.02470692 -19.875 3.19140625 C-18.89190857 2.80181229 -17.90881714 2.41221832 -16.89593506 2.01081848 C-11.11246924 -0.20178337 -6.1355752 -1.93156997 0 0 Z " fill="#070707" transform="translate(390.109375,9.6640625)"/>
<path d="M0 0 C0.5775 0.226875 1.155 0.45375 1.75 0.6875 C0.6671875 1.30625 0.6671875 1.30625 -0.4375 1.9375 C-3.22969862 3.67486803 -5.72012585 5.59131857 -8.25 7.6875 C-6.86345583 3.41232214 -5.12511737 -0.71182186 0 0 Z " fill="#4F4F4F" transform="translate(282.25,305.3125)"/>
</svg>
