<?xml version="1.0" encoding="UTF-8"?>
<svg version="1.1" xmlns="http://www.w3.org/2000/svg" width="500" height="500">
<path d="M0 0 C4.24404771 2.39598317 6.64717673 5.33489025 8 10 C8.29051407 13.27398147 8.28345875 16.53464374 8.2746582 19.81982422 C8.2823246 21.29634964 8.2823246 21.29634964 8.29014587 22.80270386 C8.30403434 26.0534271 8.30308554 29.30393813 8.30078125 32.5546875 C8.30466878 34.81763793 8.30900356 37.08058762 8.31376648 39.34353638 C8.32122724 44.08630743 8.32093857 48.82900404 8.31567383 53.57177734 C8.30988152 59.6435353 8.32680535 65.71498799 8.3500185 71.78669548 C8.36476539 76.46047746 8.36562619 81.13418609 8.36250877 85.80798721 C8.36302157 88.04624155 8.3682515 90.28450004 8.37832069 92.52273178 C8.39068505 95.65581725 8.38389289 98.78831042 8.37231445 101.92138672 C8.37995819 102.84213989 8.38760193 103.76289307 8.39547729 104.71154785 C8.35047512 110.23321491 7.65792606 114.12434046 5 119 C0.48220949 122.81652785 -4.83003941 124.70502663 -10.30078125 126.7734375 C-11.22368454 127.12921371 -12.14658783 127.48498993 -13.09745789 127.85154724 C-16.16656156 129.03286519 -19.2395098 130.20383345 -22.3125 131.375 C-24.50353551 132.21631138 -26.69428467 133.05836885 -28.88476562 133.90112305 C-33.53463253 135.68905577 -38.18596221 137.47310753 -42.83837891 139.25439453 C-49.86959861 141.94785593 -56.89468343 144.65701991 -63.91796875 147.37109375 C-65.07178543 147.81694321 -66.22560211 148.26279266 -67.41438293 148.72215271 C-69.76026566 149.62867238 -72.10613659 150.53522259 -74.45199585 151.44180298 C-80.44634547 153.75759428 -86.44192264 156.07020206 -92.4375 158.3828125 C-94.23642952 159.07673851 -94.23642952 159.07673851 -96.07170105 159.78468323 C-100.92961061 161.65856561 -105.78756044 163.53234358 -110.64550781 165.40612793 C-153.25989949 181.83898455 -153.25989949 181.83898455 -195.84619141 198.34448242 C-197.80239498 199.10469065 -199.75861223 199.86486368 -201.71484375 200.625 C-203.13509857 201.17689751 -203.13509857 201.17689751 -204.58404541 201.73994446 C-210.14250695 203.89766037 -215.70646672 206.0403306 -221.27622986 208.16870117 C-224.68452793 209.47156806 -228.09069728 210.77994472 -231.49667358 212.08886719 C-233.06263828 212.6887856 -234.62969336 213.28586674 -236.19790649 213.87988281 C-238.31962808 214.68366575 -240.43746767 215.49694813 -242.5546875 216.3125 C-244.32561768 216.98732422 -244.32561768 216.98732422 -246.13232422 217.67578125 C-248.76890138 218.89328461 -250.25854607 219.71814543 -252 222 C-253.73185481 227.19556442 -253.26500104 232.75674368 -253.29516602 238.19628906 C-253.30669431 239.64528156 -253.32716001 241.09423131 -253.35668945 242.54296875 C-253.39944136 244.64091732 -253.41554281 246.73760702 -253.42578125 248.8359375 C-253.44036377 250.08938965 -253.45494629 251.3428418 -253.4699707 252.63427734 C-252.91846132 256.58394401 -251.77927474 258.19906018 -249 261 C-243.94898406 263.52550797 -238.46307266 262.4493246 -233.25732422 260.85058594 C-229.46313562 259.46782065 -225.72231172 257.95563128 -221.98706055 256.42172241 C-219.35608976 255.34157702 -216.71754905 254.28220966 -214.07617188 253.2277832 C-211.182782 252.07273593 -208.28989677 250.91658062 -205.39926147 249.75465393 C-194.18784618 245.2516919 -182.91128384 240.91981092 -171.63406372 236.58493042 C-165.52506443 234.23579675 -159.41887248 231.87938905 -153.3125 229.5234375 C-152.10614395 229.05814133 -150.8997879 228.59284515 -149.65687561 228.1134491 C-137.76615658 223.52626158 -125.88202078 218.92216421 -114 214.3125 C-112.51539276 213.73656097 -112.51539276 213.73656097 -111.00079346 213.14898682 C-106.02548251 211.2187526 -101.0503046 209.2881758 -96.07519531 207.35742188 C-90.84617693 205.3282126 -85.61687348 203.29973924 -80.38739014 201.27172852 C-78.2334157 200.43639217 -76.07948481 199.60094351 -73.92559814 198.76538086 C-68.68328961 196.73195462 -63.44020953 194.70056922 -58.1953125 192.67382812 C-45.89332516 187.91785692 -45.89332516 187.91785692 -33.63272095 183.05653381 C-30.74647957 181.89767792 -27.85640257 180.74856924 -24.96612549 179.599823 C-23.07886123 178.8440795 -21.19819479 178.07192246 -19.31787109 177.29907227 C-12.91636269 174.75760963 -7.90271311 173.15770465 -1 174 C1.375 175.2421875 1.375 175.2421875 3 176.875 C3.556875 177.40867188 4.11375 177.94234375 4.6875 178.4921875 C6.89846542 181.03216563 7.12905887 182.75709163 7.15390015 186.03448486 C7.16250061 186.87839279 7.17110107 187.72230072 7.17996216 188.59178162 C7.18422211 189.51958939 7.18848206 190.44739716 7.19287109 191.40332031 C7.20104858 192.37908524 7.20922607 193.35485016 7.21765137 194.36018372 C7.24252769 197.59949118 7.25902744 200.83875475 7.2734375 204.078125 C7.27876118 205.18309074 7.28408485 206.28805649 7.28956985 207.42650604 C7.31631159 213.27537849 7.33568294 219.12422952 7.35009766 224.97314453 C7.36674485 231.01719412 7.41152087 237.06069838 7.4624691 243.10454178 C7.49611265 247.74911125 7.50767199 252.39355086 7.51332474 257.0382309 C7.52004553 259.26618363 7.53528895 261.49412758 7.55921555 263.72196198 C7.59080585 266.84146134 7.5909126 269.95948448 7.58349609 273.07910156 C7.6081041 274.45866783 7.6081041 274.45866783 7.63320923 275.86610413 C7.59291669 280.00840675 7.42355717 283.06052289 4.86775208 286.42965698 C1.82260174 289.15900063 -0.67266585 290.55531766 -4.4675293 292.04638672 C-5.3844167 292.41456166 -5.3844167 292.41456166 -6.31982708 292.79017448 C-8.20715645 293.54342141 -10.10253362 294.27273089 -12 295 C-13.11629791 295.44200745 -14.23259583 295.88401489 -15.38272095 296.3394165 C-18.75386777 297.66670159 -22.13486647 298.96541593 -25.51953125 300.2578125 C-27.39009168 300.97658579 -29.26065109 301.69536172 -31.13115215 302.41428947 C-34.3574035 303.65344988 -37.58501908 304.8890465 -40.8125 306.125 C-44.69228086 307.6110789 -48.57174661 309.09796139 -52.44987488 310.58834839 C-54.84868553 311.50995659 -57.24830892 312.42945316 -59.64888 313.34646606 C-62.77317879 314.54673064 -65.88831427 315.76745829 -69 317 C-69.87683441 317.33771423 -70.75366882 317.67542847 -71.65707397 318.02337646 C-72.44788361 318.3455011 -73.23869324 318.66762573 -74.0534668 318.99951172 C-75.06282539 319.40180496 -75.06282539 319.40180496 -76.09257507 319.81222534 C-78.91897392 321.57225525 -80.27227423 323.1220575 -82 326 C-82.57058875 329.18977825 -82.53336131 332.32693031 -82.49829102 335.56030273 C-82.50380981 336.5169986 -82.50932861 337.47369446 -82.51501465 338.4593811 C-82.52432741 340.5327849 -82.52444581 342.6062459 -82.51642036 344.67965508 C-82.5037944 347.96267643 -82.515077 351.24485655 -82.53245544 354.52784729 C-82.55916903 360.31402534 -82.56475069 366.09999742 -82.56335449 371.88623047 C-82.56112691 381.14407543 -82.5752446 390.40166533 -82.61894035 399.65941048 C-82.6287772 402.89119493 -82.62006168 406.12257865 -82.61024475 409.35435486 C-82.61638971 411.33967348 -82.6233017 413.32498993 -82.63110352 415.31030273 C-82.62338425 416.20659897 -82.61566498 417.1028952 -82.60771179 418.02635193 C-82.6488755 423.10684969 -83.19834649 426.58628255 -86 431 C-87.60791016 432.45117188 -87.60791016 432.45117188 -89.4140625 433.46875 C-90.12208008 433.87351562 -90.83009766 434.27828125 -91.55957031 434.6953125 C-92.36491211 435.12585938 -93.17025391 435.55640625 -94 436 C-95.36656738 436.73863281 -95.36656738 436.73863281 -96.76074219 437.4921875 C-99.95200762 439.18867869 -103.16035254 440.84825973 -106.375 442.5 C-107.56581118 443.11480045 -108.75656532 443.7297114 -109.94726562 444.34472656 C-119.17919767 449.10371209 -128.4659775 453.75057671 -137.76660156 458.3737793 C-144.26215848 461.6091465 -150.71329824 464.91414618 -157.125 468.3125 C-158.63410778 469.10808582 -160.14322218 469.90365909 -161.65234375 470.69921875 C-163.84870466 471.85817684 -166.04151424 473.02240003 -168.22705078 474.20166016 C-170.37299254 475.35767685 -172.52886927 476.49289893 -174.6875 477.625 C-175.31092285 477.96829346 -175.9343457 478.31158691 -176.57666016 478.6652832 C-181.35550471 481.13721048 -184.75210724 481.44825751 -190 481 C-195.10209922 478.30455136 -198.17381037 475.4785689 -200 470 C-200.09808221 467.89553761 -200.13501412 465.78805999 -200.14044189 463.68132019 C-200.14341302 463.03778904 -200.14638414 462.39425789 -200.1494453 461.73122579 C-200.15812909 459.57104821 -200.15964027 457.41092608 -200.16113281 455.25073242 C-200.16576122 453.70339337 -200.17078591 452.15605545 -200.17617798 450.60871887 C-200.18930192 446.40201668 -200.19574694 442.19533045 -200.20018864 437.98861098 C-200.20311941 435.36048591 -200.20722423 432.7323652 -200.21169281 430.10424232 C-200.2253678 421.88162639 -200.23503442 413.65902043 -200.2388947 405.43639392 C-200.24337544 395.94426621 -200.26092403 386.4522825 -200.2898953 376.96019858 C-200.31151115 369.62337168 -200.32159893 362.28658529 -200.32293582 354.94972688 C-200.32398393 350.56764175 -200.32989295 346.18569198 -200.34775543 341.80364037 C-200.36423444 337.68075293 -200.3663925 333.55810264 -200.35761642 329.43519402 C-200.35684595 327.92351395 -200.36119014 326.41182114 -200.37107468 324.90017319 C-200.38379676 322.83304405 -200.3779169 320.7667545 -200.36749268 318.69963074 C-200.36969252 316.96605206 -200.36969252 316.96605206 -200.3719368 315.19745159 C-199.83022472 310.54048261 -198.19243247 307.22856679 -194.9375 303.875 C-189.72970229 300.5508738 -184.09260165 297.49923962 -177.75 297.9375 C-173.29951124 299.19847181 -171.11717206 300.58595442 -168 304 C-165.77889623 309.84961273 -165.71238059 315.33027592 -165.72875977 321.53759766 C-165.72353302 322.57422043 -165.71830627 323.6108432 -165.71292114 324.67887878 C-165.70271181 326.92031981 -165.69690611 329.16178434 -165.69503975 331.40324783 C-165.69136842 334.95061516 -165.67462229 338.49770488 -165.65428162 342.04501343 C-165.59892962 352.12728727 -165.56813359 362.20960096 -165.54370117 372.29199219 C-165.52783901 378.46633189 -165.49764008 384.6404722 -165.45893669 390.81470871 C-165.44728135 393.16623191 -165.4413563 395.51779072 -165.44125557 397.8693428 C-165.44106381 401.15350484 -165.42281982 404.43711497 -165.40063477 407.72119141 C-165.40521194 408.69274673 -165.40978912 409.66430206 -165.414505 410.66529846 C-165.3617088 415.57438135 -165.25834216 419.04517241 -162 423 C-157.9374303 425.67791606 -153.69545476 425.791216 -149 425 C-144.37340886 423.28971344 -140.05777519 421.08975975 -135.6875 418.8125 C-134.52154297 418.23435547 -133.35558594 417.65621094 -132.15429688 417.06054688 C-123.05654046 412.51668195 -123.05654046 412.51668195 -118 404 C-117.90664273 402.61522435 -117.8667921 401.22644213 -117.86196899 399.83853149 C-117.85651566 398.99180374 -117.85106232 398.14507599 -117.84544373 397.27268982 C-117.8444014 396.34690628 -117.84335907 395.42112274 -117.84228516 394.46728516 C-117.83720444 393.48976791 -117.83212372 392.51225067 -117.82688904 391.50511169 C-117.81618191 389.38036625 -117.80756308 387.2556095 -117.80076981 385.13084793 C-117.78899109 381.76868015 -117.76954121 378.40664141 -117.74765015 375.04452515 C-117.68599633 365.48447961 -117.63196265 355.92444735 -117.59863281 346.36425781 C-117.57770315 340.5186998 -117.54241394 334.67337705 -117.49787521 328.82795334 C-117.48370204 326.59924461 -117.47498982 324.37049425 -117.47182083 322.14174271 C-117.46691944 319.0247455 -117.44378102 315.90837422 -117.41650391 312.79150391 C-117.42101311 311.40890129 -117.42101311 311.40890129 -117.4256134 309.99836731 C-117.36337994 305.21644756 -117.21579279 301.81472342 -114 298 C-112.25901794 296.75743103 -112.25901794 296.75743103 -110.34936523 295.90209961 C-109.64198212 295.58038788 -108.934599 295.25867615 -108.20578003 294.92721558 C-107.47787262 294.62123444 -106.74996521 294.3152533 -106 294 C-105.31745148 293.71295197 -104.63490295 293.42590393 -103.93167114 293.13015747 C-101.76732543 292.24905507 -99.59189609 291.40347287 -97.41015625 290.56640625 C-96.19490768 290.09476044 -96.19490768 290.09476044 -94.95510864 289.61358643 C-93.22219366 288.94142821 -91.48863535 288.27092658 -89.75448608 287.60195923 C-87.02944103 286.54973491 -84.30701413 285.4909845 -81.58520508 284.43041992 C-73.56004736 281.30550124 -65.53025132 278.19426604 -57.47859192 275.13819885 C-54.42689856 273.97784584 -51.37949232 272.80650877 -48.33273315 271.63327026 C-46.9124341 271.08986116 -45.49001701 270.55195322 -44.06546021 270.01980591 C-42.09418962 269.28316107 -40.13073233 268.52849689 -38.16796875 267.76953125 C-37.06735107 267.35292236 -35.9667334 266.93631348 -34.83276367 266.50708008 C-31.48556452 264.72631128 -29.9432859 263.25543636 -28 260 C-27.4048551 256.70625994 -27.4048551 256.70625994 -27.50390625 253.125 C-27.50326172 251.81015625 -27.50261719 250.4953125 -27.50195312 249.140625 C-27.51234619 248.46064453 -27.52273926 247.78066406 -27.53344727 247.08007812 C-27.56242044 245.00569655 -27.55404268 242.93387238 -27.54101562 240.859375 C-27.40646197 232.40962745 -27.40646197 232.40962745 -31 225 C-34.51144362 222.26887718 -38.7503766 222.56248988 -43 223 C-46.36712232 223.90380676 -49.54985913 225.17774085 -52.77734375 226.48828125 C-53.71965347 226.85805588 -54.6619632 227.22783051 -55.63282776 227.60881042 C-58.73942786 228.83100705 -61.83823041 230.07184582 -64.9375 231.3125 C-67.13354878 232.1798194 -69.33017413 233.0456802 -71.52734375 233.91015625 C-76.09193773 235.70740547 -80.65398521 237.51090929 -85.21435547 239.31884766 C-94.61609912 243.04070226 -104.04726936 246.68606846 -113.47879028 250.33163452 C-118.57061712 252.30075129 -123.66018455 254.27569139 -128.75 256.25 C-130.79165603 257.04169409 -132.83332269 257.83336077 -134.875 258.625 C-135.885625 259.016875 -136.89625 259.40875 -137.9375 259.8125 C-147.12499938 263.37499976 -147.12499938 263.37499976 -150.18722534 264.56239319 C-152.22980782 265.35441517 -154.27239001 266.14643788 -156.31497192 266.9384613 C-161.40512445 268.91219754 -166.49528177 270.8859214 -171.58544922 272.85961914 C-179.86203914 276.06885579 -188.13862557 279.27810136 -196.41503906 282.48779297 C-197.48220657 282.90163742 -198.54937408 283.31548187 -199.64888 283.74186707 C-201.79914824 284.57581267 -203.94936621 285.40988791 -206.09953308 286.24409485 C-211.33340798 288.27447972 -216.56812931 290.30261591 -221.80493164 292.32543945 C-234.09637237 297.07558168 -234.09637237 297.07558168 -246.3414917 301.94346619 C-249.21771671 303.10306296 -252.09822098 304.25180613 -254.97894287 305.400177 C-256.85576171 306.15464192 -258.72520248 306.92738301 -260.59423828 307.70092773 C-268.07199564 310.67827325 -275.13217529 312.86427329 -282.9375 309.875 C-286.02307351 307.06993317 -287.73113208 304.06518864 -288.27723312 299.87055779 C-288.38977413 297.31540849 -288.40533322 294.77610366 -288.38818359 292.21850586 C-288.39344055 291.25030411 -288.39869751 290.28210236 -288.40411377 289.28456116 C-288.41728296 286.09448971 -288.40858709 282.90491999 -288.3984375 279.71484375 C-288.40045895 277.49337163 -288.40337098 275.27190015 -288.40713501 273.0504303 C-288.41155406 268.39935983 -288.40514004 263.74846243 -288.39111328 259.09741211 C-288.37401185 253.13644373 -288.38387153 247.17588029 -288.40183067 241.21492672 C-288.41267122 236.62957203 -288.40922105 232.04431335 -288.4014473 227.45895576 C-288.39944657 225.26092035 -288.40190009 223.06287622 -288.40888596 220.864851 C-288.41650581 217.79369887 -288.40488872 214.72320288 -288.38818359 211.65209961 C-288.39729263 210.2905928 -288.39729263 210.2905928 -288.40658569 208.90158081 C-288.35847915 204.12692074 -288.16835715 200.83150828 -285 197 C-280.08249769 192.85137087 -273.97098799 190.59300104 -267.9921875 188.42578125 C-267.13027802 188.10469391 -266.26836853 187.78360657 -265.38034058 187.45278931 C-263.5206774 186.76072207 -261.65959389 186.07246164 -259.79724121 185.38766479 C-254.73520937 183.52521812 -249.6846681 181.63202489 -244.6328125 179.7421875 C-243.58706055 179.35173752 -242.54130859 178.96128754 -241.46386719 178.55900574 C-230.51556484 174.46290777 -219.6290033 170.21361327 -208.75 165.9375 C-206.81731247 165.17868283 -204.88461389 164.4198938 -202.9519043 163.66113281 C-199.13962862 162.16396313 -195.32777762 160.66571749 -191.51611328 159.16699219 C-182.91191646 155.7851635 -174.30012845 152.42278571 -165.6875 149.0625 C-164.857948 148.73879425 -164.028396 148.4150885 -163.17370605 148.08157349 C-149.28838311 142.66415049 -135.39587272 137.26529924 -121.5 131.875 C-120.50198364 131.48771729 -119.50396729 131.10043457 -118.47570801 130.70141602 C-106.4842616 126.04885226 -94.48602597 121.41438856 -82.47823715 116.80419159 C-78.55282113 115.29667385 -74.62815228 113.78721134 -70.70342827 112.27789307 C-67.52371141 111.05539449 -64.34337559 109.83455697 -61.16162109 108.61737061 C-57.61549149 107.26017287 -54.07126113 105.8981181 -50.52734375 104.53515625 C-48.95248451 103.93479805 -48.95248451 103.93479805 -47.34580994 103.3223114 C-36.167401 99.66150851 -36.167401 99.66150851 -28 92 C-26.23365368 86.70096105 -26.77439368 80.98091395 -26.75976562 75.43139648 C-26.75007979 73.20583438 -26.71905468 70.98120408 -26.6875 68.75585938 C-26.68096728 67.33073462 -26.67571786 65.90560329 -26.671875 64.48046875 C-26.65785645 62.54530396 -26.65785645 62.54530396 -26.64355469 60.57104492 C-27.10598121 55.93822795 -28.58109253 52.63720093 -31.625 49.125 C-36.45593335 46.83666315 -42.12346696 47.50346145 -47.09960938 49.16723633 C-48.52026626 49.7067709 -49.93481543 50.26258686 -51.34375 50.83203125 C-52.12999756 51.13548965 -52.91624512 51.43894806 -53.72631836 51.75160217 C-56.32328256 52.75781213 -58.91136348 53.78507648 -61.5 54.8125 C-63.34254286 55.53088756 -65.18565548 56.24781529 -67.02929688 56.96337891 C-70.96148778 58.49222882 -74.8901457 60.02971588 -78.81640625 61.57373047 C-86.18508917 64.46938618 -93.56920766 67.32477905 -100.9535675 70.18016052 C-106.23064527 72.22108878 -111.50634956 74.26535183 -116.77807617 76.32006836 C-125.41203067 79.6841547 -134.04453186 83.04303374 -142.73828125 86.25 C-143.96546875 86.70648926 -145.19265625 87.16297852 -146.45703125 87.63330078 C-148.59934742 88.42606999 -150.74612968 89.2069408 -152.8984375 89.97216797 C-157.88531348 91.8245122 -161.19050519 93.21231295 -164 98 C-164.97092697 100.91278092 -165.13661659 102.85969293 -165.17578125 105.89453125 C-165.19962891 106.85037109 -165.22347656 107.80621094 -165.24804688 108.79101562 C-165.29076113 110.79340807 -165.32214921 112.79607652 -165.34179688 114.79882812 C-165.51039403 120.63699486 -165.87724416 124.50888797 -170 129 C-172.47265625 130.64453125 -172.47265625 130.64453125 -175.0625 131.8125 C-175.91972656 132.21082031 -176.77695313 132.60914063 -177.66015625 133.01953125 C-182.0125787 134.84333431 -185.26908392 135.40092509 -190 135 C-194.97623672 132.51188164 -197.00671687 130.13858464 -199 125 C-199.42443925 121.6019235 -199.42074321 118.23752159 -199.3984375 114.81640625 C-199.40130768 113.84267563 -199.40417786 112.86894501 -199.40713501 111.8657074 C-199.40917072 109.81240251 -199.40367543 107.75907801 -199.39111328 105.70581055 C-199.37507031 102.57621515 -199.39097011 99.44791454 -199.41015625 96.31835938 C-199.40817339 94.3177055 -199.40432884 92.31705243 -199.3984375 90.31640625 C-199.40451019 89.38703751 -199.41058289 88.45766876 -199.4168396 87.50013733 C-199.34561084 80.86391535 -198.67970023 75.89606339 -193.99829102 70.83666992 C-189.57202103 68.12525969 -184.88356001 66.41397677 -180.02734375 64.61328125 C-178.93403244 64.1993512 -177.84072113 63.78542114 -176.71427917 63.35894775 C-173.12506134 62.00191223 -169.53127427 60.65741684 -165.9375 59.3125 C-163.4228308 58.36475218 -160.90933784 57.41390822 -158.39599609 56.46264648 C-154.57479015 55.01687781 -150.7534214 53.57156359 -146.93048096 52.13038635 C-135.97272002 47.99888889 -125.04393345 43.79535013 -114.125 39.5625 C-112.38636758 38.88958581 -110.64767893 38.21681687 -108.90893555 37.54418945 C-105.28124252 36.14073887 -101.6537321 34.73681795 -98.02636719 33.33251953 C-87.98587279 29.44589686 -77.94395535 25.56295803 -67.90075874 21.68332386 C-63.64575088 20.03957965 -59.39141412 18.39410694 -55.13720703 16.74829102 C-6.88714804 -1.90080078 -6.88714804 -1.90080078 0 0 Z " fill="#A09D9D" transform="translate(390,10)"/>
</svg>
