<?xml version="1.0" encoding="UTF-8"?>
<svg version="1.1" xmlns="http://www.w3.org/2000/svg" width="500" height="500">
<path d="M0 0 C3.1359157 1.77984405 3.84102736 2.52308207 5 6 C5.1029643 7.7984744 5.14849289 9.60048043 5.16113281 11.40185547 C5.17074036 12.50665253 5.1803479 13.61144958 5.19024658 14.74972534 C5.1966214 16.54036911 5.1966214 16.54036911 5.203125 18.3671875 C5.20882507 19.59406281 5.21452515 20.82093811 5.22039795 22.08499146 C5.22985044 24.68246599 5.23638291 27.27995253 5.24023438 29.87744141 C5.24994406 33.85210049 5.28096778 37.82624347 5.3125 41.80078125 C5.31902961 44.32291359 5.32428025 46.84504964 5.328125 49.3671875 C5.3404718 50.55690155 5.3528186 51.7466156 5.36553955 52.97238159 C5.36253845 54.08348297 5.35953735 55.19458435 5.35644531 56.33935547 C5.36191376 57.80137894 5.36191376 57.80137894 5.36749268 59.29293823 C4.9305906 62.51129054 3.89676321 64.38489968 2 67 C-0.20825195 68.30297852 -0.20825195 68.30297852 -2.92578125 69.31640625 C-4.00424316 69.73164551 -5.08270508 70.14688477 -6.19384766 70.57470703 C-6.79908264 70.80023254 -7.40431763 71.02575806 -8.02789307 71.25811768 C-10.15255268 72.05738844 -12.26281974 72.88822823 -14.37255859 73.72607422 C-19.63667756 75.81591289 -24.91169049 77.87738418 -30.1875 79.9375 C-31.16177948 80.31839783 -32.13605896 80.69929565 -33.13986206 81.09173584 C-50.76347493 87.98081312 -68.40948709 94.8117064 -86.0625 101.625 C-87.25571869 102.08558807 -88.44893738 102.54617615 -89.67831421 103.02072144 C-92.01660804 103.92304925 -94.35504038 104.82501824 -96.69361877 105.72660828 C-98.93664675 106.59142588 -101.17936101 107.45705764 -103.42173767 108.32356262 C-108.68384149 110.35358615 -113.95240008 112.36115785 -119.24169922 114.31933594 C-120.21546005 114.68215668 -121.18922089 115.04497742 -122.19248962 115.41879272 C-124.006266 116.09300259 -125.82250822 116.76063113 -127.64161682 117.4203186 C-128.43978317 117.71779999 -129.23794952 118.01528137 -130.06030273 118.32177734 C-131.09923927 118.70189468 -131.09923927 118.70189468 -132.15916443 119.08969116 C-134.24010628 120.1187346 -135.50924529 121.22832605 -137 123 C-137.44203712 124.98855078 -137.44203712 124.98855078 -137.36328125 127.16015625 C-137.36231445 128.3502832 -137.36231445 128.3502832 -137.36132812 129.56445312 C-137.34521484 130.38880859 -137.32910156 131.21316406 -137.3125 132.0625 C-137.31572266 132.89072266 -137.31894531 133.71894531 -137.32226562 134.57226562 C-137.52593796 139.29057609 -137.52593796 139.29057609 -135 143 C-128.70135642 143.72956868 -123.9848675 141.76459299 -118.29296875 139.40625 C-117.35153015 139.02795547 -116.41009155 138.64966095 -115.44012451 138.25990295 C-113.41095037 137.443251 -111.38392193 136.6212512 -109.3588562 135.79446411 C-103.95207253 133.58755736 -98.52948085 131.42002379 -93.109375 129.24609375 C-92.00766464 128.80289291 -90.90595428 128.35969208 -89.77085876 127.90306091 C-79.20802355 123.6608658 -68.58442445 119.58809436 -57.9375 115.5625 C-54.52588411 114.2712492 -51.1144398 112.97954604 -47.703125 111.6875 C-46.48018738 111.22459312 -46.48018738 111.22459312 -45.23254395 110.75233459 C-39.70104664 108.655101 -34.18272017 106.52587816 -28.671875 104.375 C-27.94235123 104.09059555 -27.21282745 103.8061911 -26.4611969 103.51316833 C-23.07930847 102.19397363 -19.69928999 100.87028283 -16.32202148 99.53930664 C-15.15743408 99.08418701 -13.99284668 98.62906738 -12.79296875 98.16015625 C-11.7877417 97.76449463 -10.78251465 97.36883301 -9.74682617 96.96118164 C-7.13567038 96.04747438 -4.74673776 95.33183821 -2 95 C0.2831838 96.1415919 2.19012683 97.19012683 4 99 C4.114624 100.75807908 4.15962986 102.52074458 4.17700195 104.2824707 C4.19625481 105.97476555 4.19625481 105.97476555 4.21589661 107.70124817 C4.22328354 108.93034409 4.23067047 110.15944 4.23828125 111.42578125 C4.246353 112.68005417 4.25442474 113.93432709 4.26274109 115.22660828 C4.27660276 117.88735671 4.28761288 120.54798034 4.29516602 123.20874023 C4.30622245 126.61534055 4.34060683 130.02128616 4.38033772 133.42765522 C4.41278874 136.67696585 4.41728217 139.92633325 4.42578125 143.17578125 C4.44328934 144.39880447 4.46079742 145.6218277 4.47883606 146.88191223 C4.47444771 148.5883918 4.47444771 148.5883918 4.4699707 150.3293457 C4.47583694 151.33004593 4.48170319 152.33074615 4.48774719 153.36177063 C3.85789242 156.76866128 2.68925909 157.87273655 0 160 C-2.02407837 161.08843994 -2.02407837 161.08843994 -4.18603516 161.92285156 C-5.00012848 162.24288147 -5.8142218 162.56291138 -6.65298462 162.89263916 C-7.95784317 163.38664215 -7.95784317 163.38664215 -9.2890625 163.890625 C-10.1886972 164.24010193 -11.08833191 164.58957886 -12.01522827 164.949646 C-13.91123324 165.68395632 -15.80920593 166.41320353 -17.70898438 167.13769531 C-20.62542178 168.25016089 -23.53572725 169.37756187 -26.4453125 170.5078125 C-28.28872527 171.21962396 -30.13246435 171.93059105 -31.9765625 172.640625 C-32.85051666 172.97805725 -33.72447083 173.3154895 -34.62490845 173.66314697 C-35.43269745 173.97056824 -36.24048645 174.2779895 -37.07275391 174.59472656 C-37.78460846 174.86690002 -38.49646301 175.13907349 -39.22988892 175.41949463 C-41 176 -41 176 -43 176 C-44.01743635 179.05230904 -44.12442761 181.11581051 -44.12597656 184.31005859 C-44.12978333 185.3948349 -44.13359009 186.47961121 -44.13751221 187.59725952 C-44.13853943 188.76914825 -44.13956665 189.94103699 -44.140625 191.1484375 C-44.158949 193.62240507 -44.17851893 196.09636367 -44.19921875 198.5703125 C-44.22822427 202.47671674 -44.25000094 206.38254344 -44.25048828 210.2890625 C-44.25381695 214.05521079 -44.28833191 217.82002096 -44.328125 221.5859375 C-44.3210553 222.75377777 -44.3139856 223.92161804 -44.30670166 225.12484741 C-44.42836398 233.21136147 -44.42836398 233.21136147 -47.25415039 237.10986328 C-49.67451075 238.77594579 -51.98967751 240.32173506 -54.60546875 241.65625 C-55.49427734 242.11555908 -56.38308594 242.57486816 -57.29882812 243.0480957 C-58.25208984 243.52722412 -59.20535156 244.00635254 -60.1875 244.5 C-61.18330078 245.00684326 -62.17910156 245.51368652 -63.20507812 246.03588867 C-65.34233896 247.12191 -67.48157 248.20406105 -69.62255859 249.28271484 C-72.52066455 250.75627833 -75.40292878 252.25596166 -78.27815247 253.77359009 C-81.1780988 255.30066067 -84.09026281 256.80419147 -87 258.3125 C-88.09078857 258.89386719 -89.18157715 259.47523438 -90.30541992 260.07421875 C-98.89462231 264.46623431 -98.89462231 264.46623431 -103.0625 264.10546875 C-106.50427335 262.81022692 -107.25810717 262.19791109 -109 259 C-109.30091132 256.08086452 -109.4304846 253.37471705 -109.41992188 250.45532227 C-109.42839142 249.59470184 -109.43686096 248.73408142 -109.44558716 247.84738159 C-109.46897892 245.00357267 -109.46997882 242.16030409 -109.46875 239.31640625 C-109.47585016 237.33869713 -109.48354895 235.36099008 -109.49182129 233.38328552 C-109.50527103 229.23813145 -109.50683259 225.09316784 -109.50097656 220.94799805 C-109.49507944 215.63693029 -109.52567038 210.32677633 -109.56609344 205.01588535 C-109.59194685 200.93148375 -109.59485001 196.84730288 -109.59120178 192.76283073 C-109.59289518 190.80480591 -109.60255881 188.84677113 -109.62034607 186.88882637 C-109.6424898 184.14995338 -109.63285785 181.41293907 -109.61523438 178.67407227 C-109.62849762 177.8661171 -109.64176086 177.05816193 -109.65542603 176.22572327 C-109.59178316 171.9675413 -109.36903022 170.45560188 -106.58654785 167.02037048 C-102.48704603 163.81822115 -99.13219838 163.4005424 -94 164 C-91.32568511 165.81163267 -91.04079641 166.87761077 -90 170 C-89.90809008 171.93186457 -89.87487659 173.86673177 -89.87402344 175.80078125 C-89.87021667 176.9921167 -89.86640991 178.18345215 -89.86248779 179.41088867 C-89.86146057 180.69842041 -89.86043335 181.98595215 -89.859375 183.3125 C-89.84745057 185.32965794 -89.83208385 187.34677288 -89.81666946 189.36390686 C-89.77865534 194.34387515 -89.74738962 199.32358088 -89.74951172 204.30371094 C-89.7502978 207.76993644 -89.72698675 211.23527061 -89.6876297 214.70126343 C-89.67206284 216.66381857 -89.68252198 218.62652404 -89.69329834 220.58911133 C-89.66867523 222.3761145 -89.66867523 222.3761145 -89.64355469 224.19921875 C-89.63808624 225.77449341 -89.63808624 225.77449341 -89.63250732 227.3815918 C-89.23311832 230.2152491 -89.23311832 230.2152491 -86.60943604 231.88793945 C-84.09370752 233.23777507 -84.09370752 233.23777507 -81.60546875 232.59375 C-80.80753906 232.2328125 -80.00960937 231.871875 -79.1875 231.5 C-78.32640625 231.11070312 -77.4653125 230.72140625 -76.578125 230.3203125 C-69.8125179 227.23588594 -69.8125179 227.23588594 -65 222 C-64.89582183 220.23422269 -64.85402927 218.46460961 -64.84228516 216.69580078 C-64.83202301 215.5877005 -64.82176086 214.47960022 -64.81118774 213.33792114 C-64.80388641 212.13586029 -64.79658508 210.93379944 -64.7890625 209.6953125 C-64.76099715 207.16796224 -64.73233271 204.64061857 -64.703125 202.11328125 C-64.6618168 198.11474578 -64.62389448 194.11634141 -64.59863281 190.11767578 C-64.57108634 186.26829368 -64.52521525 182.41947784 -64.4765625 178.5703125 C-64.47330963 177.37230011 -64.47005676 176.17428772 -64.46670532 174.93997192 C-64.45013885 173.82556732 -64.43357239 172.71116272 -64.41650391 171.56298828 C-64.40841705 170.58306915 -64.4003302 169.60315002 -64.39199829 168.59353638 C-63.92823764 165.52520639 -63.15650075 164.21020886 -61 162 C-59.1096344 160.93174744 -59.1096344 160.93174744 -56.95922852 160.12475586 C-56.15151505 159.81440903 -55.34380157 159.50406219 -54.51161194 159.18431091 C-53.64281906 158.86438675 -52.77402618 158.54446259 -51.87890625 158.21484375 C-50.98259995 157.87248184 -50.08629364 157.53011993 -49.16282654 157.17738342 C-46.30035321 156.08565629 -43.43202651 155.01053702 -40.5625 153.9375 C-37.69740147 152.85884921 -34.83379532 151.77661768 -31.97288513 150.68690491 C-30.19365823 150.00991582 -28.41187986 149.3395855 -26.62733459 148.67674255 C-20.8799989 146.5848591 -20.8799989 146.5848591 -16 143 C-14.98826202 139.96478606 -14.83426486 137.80266921 -14.8125 134.625 C-14.79832031 133.68914062 -14.78414062 132.75328125 -14.76953125 131.7890625 C-15.02595651 128.68588219 -15.35811014 126.6627784 -17 124 C-22.85057962 121.98913326 -27.26072595 124.22053206 -32.6875 126.42578125 C-33.64174866 126.8000676 -34.59599731 127.17435394 -35.5791626 127.5599823 C-38.72491301 128.797435 -41.86222602 130.05497482 -45 131.3125 C-47.19833023 132.18111373 -49.39723207 133.04828207 -51.59667969 133.9140625 C-56.14613177 135.70712264 -60.69244472 137.50781679 -65.23632812 139.31494141 C-71.63447022 141.85803023 -78.04154853 144.37771616 -84.453125 146.88671875 C-85.44380981 147.27439926 -86.43449463 147.66207977 -87.4552002 148.06150818 C-90.38661986 149.20813377 -93.31828825 150.35412146 -96.25 151.5 C-98.16667517 152.24957135 -100.08334193 152.99916421 -102 153.7487793 C-105.64218186 155.17305441 -109.28478099 156.5962542 -112.92773438 158.01855469 C-116.19054638 159.29247698 -119.45224515 160.56917603 -122.71289062 161.84863281 C-126.1849324 163.21018253 -129.66065173 164.56181395 -133.14001465 165.90454102 C-134.93092757 166.59824503 -136.71799282 167.30185758 -138.50488281 168.00585938 C-139.55514648 168.40869141 -140.60541016 168.81152344 -141.6875 169.2265625 C-142.57824219 169.57283691 -143.46898437 169.91911133 -144.38671875 170.27587891 C-147.4773431 171.13226828 -149.80861495 171.39465086 -153 171 C-155.66378178 168.92956869 -156.85817184 167.73102347 -157.50793457 164.38195801 C-157.51111694 163.3903064 -157.51429932 162.39865479 -157.51757812 161.37695312 C-157.53649109 159.68499817 -157.53649109 159.68499817 -157.55578613 157.9588623 C-157.54768921 156.74525024 -157.53959229 155.53163818 -157.53125 154.28125 C-157.5350769 153.03122192 -157.53890381 151.78119385 -157.54284668 150.49328613 C-157.54556914 147.84994095 -157.54019953 145.20807514 -157.52148438 142.56494141 C-157.49869354 139.18182509 -157.51181983 135.79997803 -157.53577423 132.41690826 C-157.55372684 129.18414367 -157.54114701 125.95153118 -157.53125 122.71875 C-157.53934692 121.50513794 -157.54744385 120.29152588 -157.55578613 119.0411377 C-157.54317749 117.91316772 -157.53056885 116.78519775 -157.51757812 115.62304688 C-157.51439575 114.63139526 -157.51121338 113.63974365 -157.50793457 112.61804199 C-156.85149217 109.23454758 -155.67625113 108.11812594 -153 106 C-150.93464661 104.90533447 -150.93464661 104.90533447 -148.69848633 104.05566406 C-147.84847046 103.72657547 -146.99845459 103.39748688 -146.12268066 103.0584259 C-145.20176636 102.71430161 -144.28085205 102.37017731 -143.33203125 102.015625 C-142.362052 101.64326218 -141.39207275 101.27089935 -140.3927002 100.88725281 C-137.20293095 99.66508613 -134.00775865 98.45773354 -130.8125 97.25 C-128.57857208 96.39643551 -126.34509683 95.54168543 -124.11206055 94.68579102 C-119.57106425 92.94606145 -115.02836934 91.21088687 -110.484375 89.47900391 C-99.76951098 85.3896183 -89.09246909 81.20349219 -78.41503906 77.01757812 C-76.76112606 76.36964271 -75.10715425 75.72185736 -73.453125 75.07421875 C-72.6291925 74.75154022 -71.80526001 74.42886169 -70.95635986 74.09640503 C-65.16691094 71.83402968 -59.36504372 69.60558129 -53.55757141 67.38990784 C-49.26778284 65.75148415 -44.98213353 64.10239306 -40.6968689 62.45217896 C-38.62020776 61.65568103 -36.54162646 60.86417013 -34.46109009 60.07785034 C-31.57451123 58.98638507 -28.69499247 57.87796604 -25.81640625 56.765625 C-24.95082092 56.44338455 -24.0852356 56.1211441 -23.19342041 55.78913879 C-22.40328552 55.48006088 -21.61315063 55.17098297 -20.79907227 54.85253906 C-20.10999283 54.58991272 -19.42091339 54.32728638 -18.71095276 54.05670166 C-16.47098156 52.67327288 -15.89665894 51.4538143 -15 49 C-14.80759162 46.12519246 -14.72075431 43.37095169 -14.75 40.5 C-14.74226562 39.74074219 -14.73453125 38.98148438 -14.7265625 38.19921875 C-14.61308589 32.70384921 -14.61308589 32.70384921 -17 28 C-22.07266636 26.02641384 -26.10831393 28.19048269 -30.8671875 30.0859375 C-31.73127228 30.41847031 -32.59535706 30.75100311 -33.48562622 31.09361267 C-36.28702698 32.17512721 -39.08100646 33.27450684 -41.875 34.375 C-43.78607435 35.11841948 -45.69753356 35.86085037 -47.609375 36.60229492 C-51.36810279 38.06194184 -55.12401149 39.52851906 -58.87792969 41.00048828 C-63.18120961 42.68523021 -67.496078 44.33467136 -71.8203125 45.96484375 C-72.89297363 46.37234863 -73.96563477 46.77985352 -75.07080078 47.19970703 C-76.97058726 47.92142955 -78.87249733 48.63759616 -80.77685547 49.34716797 C-81.59299316 49.66186035 -82.40913086 49.97655273 -83.25 50.30078125 C-83.93578125 50.56028564 -84.6215625 50.81979004 -85.328125 51.0871582 C-87.35132559 52.02382064 -87.35132559 52.02382064 -89 55 C-89.30118889 58.26144541 -89.37815271 61.49967517 -89.4609375 64.7734375 C-90.10557749 68.63193483 -91.2335919 70.27276228 -94 73 C-97.56442903 74.80701671 -100.96447182 75.18009186 -104.875 74.5 C-107.97627086 72.31086763 -108.13186788 70.73296814 -109 67 C-109.19429219 62.77916975 -109.04921089 58.5947749 -108.875 54.375 C-108.85179687 53.24320313 -108.82859375 52.11140625 -108.8046875 50.9453125 C-108.7634375 49.85734375 -108.7221875 48.769375 -108.6796875 47.6484375 C-108.64601074 46.66020996 -108.61233398 45.67198242 -108.57763672 44.65380859 C-107.82457115 41.19403567 -106.81018372 40.14120048 -104 38 C-101.54562895 36.83421444 -99.17995103 35.82920616 -96.64453125 34.8828125 C-95.89441772 34.59276337 -95.1443042 34.30271423 -94.37145996 34.00387573 C-91.85564526 33.03390582 -89.33428691 32.07932484 -86.8125 31.125 C-85.02918533 30.44233468 -83.2462353 29.75871616 -81.46362305 29.07421875 C-78.55956788 27.95971736 -75.65503068 26.84657328 -72.74885559 25.73760986 C-65.07202498 22.80646524 -57.41662586 19.82259058 -49.76716042 16.82101059 C-45.87766207 15.2961358 -41.98574246 13.77745187 -38.09377575 12.25889015 C-34.88671163 11.00717969 -31.68095709 9.75231887 -28.47793579 8.49029541 C-24.86076278 7.0655443 -21.23730755 5.65723284 -17.61328125 4.25 C-16.52744751 3.81952362 -15.44161377 3.38904724 -14.32287598 2.94552612 C-13.31309692 2.55615875 -12.30331787 2.16679138 -11.26293945 1.765625 C-10.38732864 1.42305664 -9.51171783 1.08048828 -8.60957336 0.72753906 C-5.6086493 -0.10910708 -3.1021752 -0.21196396 0 0 Z " fill="#A29F9F" transform="translate(326,118)"/>
<path d="M0 0 C0.66 0.33 1.32 0.66 2 1 C1.02688873 1.81691315 1.02688873 1.81691315 0.03411865 2.65032959 C-2.45862429 5.52977044 -2.51203478 6.83586059 -2.54589844 10.59472656 C-2.56561707 11.71558655 -2.58533569 12.83644653 -2.60565186 13.99127197 C-2.60688049 15.19555847 -2.60810913 16.39984497 -2.609375 17.640625 C-2.62591125 18.87794373 -2.64244751 20.11526245 -2.65948486 21.39007568 C-2.69982385 24.67151531 -2.72314761 27.9524963 -2.73822021 31.23413086 C-2.75780671 34.58595841 -2.80010897 37.93741314 -2.83984375 41.2890625 C-2.91384629 47.85930483 -2.9654191 54.42943834 -3 61 C-3.33 61 -3.66 61 -4 61 C-4.09273534 53.63731904 -4.16378235 46.27476427 -4.20724869 38.91161728 C-4.22811201 35.4924632 -4.25640505 32.07370906 -4.30175781 28.65478516 C-4.35358618 24.72303069 -4.37295578 20.79143743 -4.390625 16.859375 C-4.41127014 15.63321472 -4.43191528 14.40705444 -4.45318604 13.14373779 C-4.45348816 12.00285706 -4.45379028 10.86197632 -4.45410156 9.68652344 C-4.46742523 8.18094879 -4.46742523 8.18094879 -4.48101807 6.6449585 C-3.87550795 3.31545958 -2.5548766 2.13110702 0 0 Z " fill="#BBB9B9" transform="translate(173,224)"/>
<path d="M0 0 C0.66 0 1.32 0 2 0 C0.125 3.875 0.125 3.875 -1 5 C-1.12307311 6.71774167 -1.17786558 8.44042739 -1.20532227 10.16235352 C-1.22526749 11.26341934 -1.24521271 12.36448517 -1.26576233 13.49891663 C-1.28247482 14.6968132 -1.29918732 15.89470978 -1.31640625 17.12890625 C-1.33718735 18.34827377 -1.35796844 19.5676413 -1.37937927 20.82395935 C-1.44500428 24.73674645 -1.50381972 28.64960317 -1.5625 32.5625 C-1.60567291 35.20768962 -1.64928678 37.85287209 -1.69335938 40.49804688 C-1.8006988 46.99862336 -1.90244067 53.49926979 -2 60 C-2.33 60 -2.66 60 -3 60 C-3.07599581 52.09804436 -3.12857714 44.19618278 -3.16479492 36.29394531 C-3.17819884 33.60503753 -3.19908356 30.91634148 -3.22631836 28.22753906 C-3.26266166 24.3651725 -3.27971773 20.50313121 -3.29296875 16.640625 C-3.30845261 15.4363385 -3.32393646 14.232052 -3.33988953 12.99127197 C-3.34011612 11.87041199 -3.34034271 10.749552 -3.34057617 9.59472656 C-3.35056892 8.11579926 -3.35056892 8.11579926 -3.36076355 6.60699463 C-2.94089159 3.57286346 -2.12081746 2.18246385 0 0 Z " fill="#CBC9C9" transform="translate(265,280)"/>
</svg>
