<?xml version="1.0" encoding="UTF-8"?>
<svg version="1.1" xmlns="http://www.w3.org/2000/svg" width="500" height="500">
<path d="M0 0 C3.44312714 2.1244827 4.71617547 3.14852641 6 7 C6.10588397 9.42191746 6.1572199 11.81549081 6.16113281 14.23779297 C6.16609772 14.97147095 6.17106262 15.70514893 6.17617798 16.46105957 C6.19078255 18.88811176 6.19759854 21.31509859 6.203125 23.7421875 C6.20887761 25.42986045 6.21463533 27.11753338 6.22039795 28.8052063 C6.23090291 32.34426172 6.23674896 35.88329446 6.24023438 39.42236328 C6.24571979 43.95413072 6.26975084 48.48559781 6.29820633 53.01727104 C6.31684195 56.50372185 6.32203879 59.99010042 6.32357025 63.47659683 C6.32659494 65.14713306 6.33461729 66.81766807 6.34775543 68.48815536 C6.36483651 70.82680796 6.36293102 73.16472806 6.35644531 75.50341797 C6.3656601 76.19138458 6.37487488 76.8793512 6.3843689 77.58816528 C6.34703596 81.89191661 5.59542209 84.55754768 3 88 C1.265625 89.15673828 1.265625 89.15673828 -0.75 89.9453125 C-1.554375 90.26918945 -2.35875 90.59306641 -3.1875 90.92675781 C-4.115625 91.28092773 -5.04375 91.63509766 -6 92 C-7.051875 92.41862305 -8.10375 92.83724609 -9.1875 93.26855469 C-13.1170588 94.82508223 -17.05744169 96.35179974 -21 97.875 C-22.55450157 98.47747027 -24.10894269 99.08009653 -25.66333008 99.68286133 C-31.10733096 101.79260428 -36.55349782 103.89672416 -42 106 C-43.04734314 106.4044635 -44.09468628 106.808927 -45.17376709 107.22564697 C-55.80067945 111.32911597 -66.42849832 115.43023537 -77.05664062 119.53051758 C-97.96788922 127.59839585 -118.87577856 135.67471915 -139.76316833 143.80419922 C-145.10327377 145.88074015 -150.44913445 147.94124366 -155.80194092 149.9848175 C-158.94122788 151.18498832 -162.07692902 152.39432532 -165.21191406 153.60568237 C-166.63307546 154.15219191 -168.05589093 154.69442303 -169.48046875 155.23196411 C-171.39486967 155.95469559 -173.30311045 156.69368319 -175.2109375 157.43359375 C-176.26587402 157.83634521 -177.32081055 158.23909668 -178.40771484 158.65405273 C-181.26751906 160.13889928 -182.47627667 161.17548263 -184 164 C-184.45690374 166.4397259 -184.45690374 166.4397259 -184.3984375 169.0625 C-184.40230469 170.02414063 -184.40617187 170.98578125 -184.41015625 171.9765625 C-184.39855469 172.97429687 -184.38695312 173.97203125 -184.375 175 C-184.38660156 175.99773437 -184.39820313 176.99546875 -184.41015625 178.0234375 C-184.40435547 179.46589844 -184.40435547 179.46589844 -184.3984375 180.9375 C-184.39505371 181.81277344 -184.39166992 182.68804687 -184.38818359 183.58984375 C-183.89712341 186.6387407 -183.29041148 187.90898354 -181 190 C-175.05768557 191.74377047 -171.0593377 190.38045675 -165.5703125 188.16015625 C-164.35544914 187.69115402 -164.35544914 187.69115402 -163.11604309 187.212677 C-160.44619801 186.17771903 -157.78589202 185.12024057 -155.125 184.0625 C-153.23567568 183.32512112 -151.34577229 182.5892244 -149.45532227 181.85473633 C-144.57276902 179.95379951 -139.69753919 178.03476503 -134.82366943 176.11169434 C-130.49786806 174.40860231 -126.16518587 172.7233387 -121.83203125 171.0390625 C-115.14287634 168.43720451 -108.45698511 165.8271641 -101.7734375 163.2109375 C-87.80015883 157.74312212 -73.81417275 152.30782077 -59.81835938 146.89794922 C-58.80243713 146.50525848 -57.78651489 146.11256775 -56.73980713 145.70797729 C-54.72141998 144.92785069 -52.70298787 144.14784042 -50.68450928 143.36795044 C-45.14741815 141.22615277 -39.61777294 139.06681098 -34.09638977 136.88484192 C-30.93985008 135.63889105 -27.77949926 134.40282126 -24.61837769 133.16854858 C-23.186554 132.60652227 -21.75656558 132.03979317 -20.3286438 131.46792603 C-6.72626808 126.02308964 -6.72626808 126.02308964 0 127 C3.21954645 129.53453657 4.70432435 131.11297305 6 135 C6.10467945 137.19127395 6.14866103 139.38560831 6.16113281 141.5793457 C6.16609772 142.2431424 6.17106262 142.90693909 6.17617798 143.59085083 C6.19077671 145.78583821 6.19759816 147.9807533 6.203125 150.17578125 C6.20887885 151.70411684 6.21463656 153.23245241 6.22039795 154.76078796 C6.23090178 157.96609839 6.23674831 161.17138378 6.24023438 164.37670898 C6.24571429 168.47568497 6.2697339 172.57432797 6.29820633 176.67319965 C6.31686945 179.83114068 6.32204028 182.98900213 6.32357025 186.14699364 C6.32658962 187.65761317 6.33459394 189.16823155 6.34775543 190.67879677 C6.36489163 192.79694246 6.36291769 194.91428301 6.35644531 197.0324707 C6.36191376 198.83757866 6.36191376 198.83757866 6.36749268 200.67915344 C5.95574086 204.39994761 4.92543091 206.8085839 3 210 C1.0456543 211.39624023 1.0456543 211.39624023 -1.36328125 212.37109375 C-2.34248535 212.77440918 -3.32168945 213.17772461 -4.33056641 213.59326172 C-5.54147949 214.05748535 -6.75239258 214.52170898 -8 215 C-8.74312439 215.28836731 -9.48624878 215.57673462 -10.25189209 215.87384033 C-17.49928314 218.68352318 -24.77728825 221.41078169 -32.05639648 224.13696289 C-34.84493559 225.18281446 -37.6314948 226.23381729 -40.41796875 227.28515625 C-41.2608696 227.5988063 -42.10377045 227.91245636 -42.97221375 228.23561096 C-52.2329758 231.12746301 -52.2329758 231.12746301 -59 237 C-59.10564306 239.24520117 -59.14609556 241.49355577 -59.15771484 243.74121094 C-59.16279556 244.43412231 -59.16787628 245.12703369 -59.17311096 245.84094238 C-59.18382158 247.34800701 -59.19243905 248.85508761 -59.19923019 250.36217499 C-59.2110147 252.75001843 -59.23046777 255.13768064 -59.25234985 257.52545166 C-59.31397031 264.31540871 -59.36795232 271.10534882 -59.40136719 277.89550781 C-59.42235136 282.04768007 -59.45768819 286.19952453 -59.50212479 290.35150909 C-59.51625958 291.93184796 -59.52500153 293.51224485 -59.52817917 295.09264374 C-59.53310618 297.30917969 -59.55630982 299.52485156 -59.58349609 301.74121094 C-59.59562637 303.63078522 -59.59562637 303.63078522 -59.60800171 305.55853271 C-60.10321998 309.90619826 -61.26582712 313.58522873 -64.73779297 316.41772461 C-65.39924316 316.74264893 -66.06069336 317.06757324 -66.7421875 317.40234375 C-67.53955322 317.80670654 -68.33691895 318.21106934 -69.15844727 318.62768555 C-70.05490967 319.05992432 -70.95137207 319.49216309 -71.875 319.9375 C-73.92357862 320.96273973 -75.97171186 321.98886962 -78.01953125 323.015625 C-78.89408211 323.44907478 -78.89408211 323.44907478 -79.78630066 323.89128113 C-85.66886686 326.81038075 -91.49567522 329.83417602 -97.32421875 332.859375 C-100.37852615 334.43966488 -103.43341938 336.01881538 -106.48858643 337.59744263 C-108.53469073 338.65584039 -110.57974003 339.71628025 -112.62371826 340.77877808 C-115.53802719 342.29158949 -118.45773062 343.79346897 -121.37890625 345.29296875 C-122.25939133 345.75286194 -123.1398764 346.21275513 -124.04704285 346.68658447 C-128.32999138 348.87253668 -132.10530791 350.75649919 -137 351 C-140.19970003 349.51176743 -142.76955258 347.73602339 -145 345 C-145.39872742 342.76947021 -145.39872742 342.76947021 -145.43237305 340.11621094 C-145.4521521 339.11077744 -145.47193115 338.10534393 -145.49230957 337.06944275 C-145.50191711 335.41858421 -145.50191711 335.41858421 -145.51171875 333.734375 C-145.52980591 332.57712418 -145.54789307 331.41987335 -145.56652832 330.22755432 C-145.62193619 326.40173313 -145.65538039 322.57608247 -145.6875 318.75 C-145.71902988 316.10179726 -145.75134657 313.45360378 -145.78442383 310.80541992 C-145.87454917 303.22427474 -145.93251181 295.64303051 -145.98510742 288.06154633 C-145.99983816 286.02240247 -146.01618915 283.98327883 -146.03320312 281.94415283 C-146.09701718 274.26711086 -146.1473057 266.59022856 -146.17422485 258.91296387 C-146.18303359 256.52387348 -146.19454352 254.13479144 -146.20883179 251.74572754 C-146.2265547 248.40983647 -146.23059667 245.07421352 -146.23046875 241.73828125 C-146.23759888 240.76371475 -146.244729 239.78914825 -146.2520752 238.78504944 C-146.20788044 225.44110725 -146.20788044 225.44110725 -142.3359375 221.16015625 C-137.4596048 218.4305756 -133.63947967 217 -128 217 C-125.15418083 218.17544705 -123.62006933 219.09454833 -121.88314819 221.63087463 C-120.63739942 224.97270904 -120.72464239 228.20087931 -120.74462891 231.71850586 C-120.74100845 232.49134415 -120.737388 233.26418243 -120.73365784 234.06044006 C-120.72677405 235.7355373 -120.72425649 237.41065691 -120.72560501 239.08576775 C-120.72657101 241.73820519 -120.71361985 244.39023824 -120.69662476 247.0426178 C-120.65037153 254.58266075 -120.62574281 262.12266184 -120.61914062 269.6628418 C-120.61412569 274.27768577 -120.58987835 278.89210665 -120.55381393 283.50680733 C-120.54401686 285.26382469 -120.5416835 287.02090026 -120.54698563 288.77793694 C-120.55405726 291.2364512 -120.53677377 293.6937045 -120.51416016 296.15209961 C-120.52233261 296.87589813 -120.53050507 297.59969666 -120.53892517 298.34542847 C-120.48112685 301.88084292 -120.05411249 303.91147395 -118.19515991 306.95265198 C-116.04413909 309.33693761 -116.04413909 309.33693761 -112.36328125 309.60546875 C-107.05397123 309.2547959 -102.7740513 306.83671441 -98.1875 304.3125 C-97.34251953 303.87744141 -96.49753906 303.44238281 -95.62695312 302.99414062 C-90.98659865 300.50626194 -88.37284346 298.85218305 -86 294 C-85.56322879 290.54219968 -85.56322879 290.54219968 -85.64697266 286.71875 C-85.64481247 286.00428711 -85.64265228 285.28982422 -85.64042664 284.55371094 C-85.6373488 283.00903266 -85.64091849 281.46432973 -85.65044022 279.91967773 C-85.66421521 277.47287551 -85.65772056 275.02688096 -85.64559937 272.58007812 C-85.61468398 265.62624734 -85.61952732 258.6726068 -85.63964844 251.71875 C-85.65057079 247.45932291 -85.63736858 243.20050464 -85.60975266 238.94116211 C-85.60431659 237.32088601 -85.60836466 235.70054884 -85.62215042 234.08032227 C-85.6412195 231.81328993 -85.62979096 229.5482485 -85.61181641 227.28125 C-85.61539658 225.34862305 -85.61539658 225.34862305 -85.61904907 223.37695312 C-84.83311237 219.08961707 -83.3714497 217.68153564 -80 215 C-77.91191101 213.83840942 -77.91191101 213.83840942 -75.83081055 213.07470703 C-74.64753426 212.62866623 -74.64753426 212.62866623 -73.44035339 212.1736145 C-72.59765396 211.87139984 -71.75495453 211.56918518 -70.88671875 211.2578125 C-69.99950638 210.92635223 -69.11229401 210.59489197 -68.19819641 210.25338745 C-65.36590789 209.19762165 -62.52728385 208.16041587 -59.6875 207.125 C-44.13683857 201.41904191 -44.13683857 201.41904191 -28.76953125 195.2421875 C-28.10668625 194.97318634 -27.44384125 194.70418518 -26.76091003 194.42703247 C-24.14289526 193.29449628 -22.29441861 192.40451847 -20.59570312 190.07055664 C-19.50054657 186.26398995 -19.67258684 182.4965919 -19.6875 178.5625 C-19.66333008 177.2930957 -19.66333008 177.2930957 -19.63867188 175.99804688 C-19.63490838 171.19206356 -19.83169023 167.8775178 -23 164 C-27.16513683 161.91743158 -32.44935445 163.52394987 -36.7277832 164.83743286 C-39.81052753 165.95413926 -42.85923252 167.13684705 -45.90625 168.34765625 C-47.04658691 168.79080673 -48.18692383 169.23395721 -49.36181641 169.6905365 C-52.43928053 170.88878688 -55.51283087 172.09645742 -58.58486938 173.30853271 C-61.81842309 174.58154965 -65.05690965 175.8418929 -68.29492188 177.10351562 C-73.48566896 179.12769278 -78.67375377 181.15852844 -83.859375 183.19580078 C-89.8615091 185.55382455 -95.8667815 187.90362159 -101.875 190.24609375 C-103.50529436 190.88182401 -105.13558417 191.51756597 -106.76586914 192.15332031 C-107.94247604 192.61212585 -107.94247604 192.61212585 -109.14285278 193.0802002 C-111.50641565 194.0025035 -113.869376 194.92633465 -116.23217773 195.85058594 C-131.01382239 201.63049903 -145.81844951 207.35078307 -160.62557983 213.06500244 C-162.54567448 213.80600669 -164.46571238 214.54715784 -166.38574219 215.28833008 C-169.98742406 216.67843224 -173.58935464 218.06788748 -177.19140625 219.45703125 C-178.80427269 220.07938408 -178.80427269 220.07938408 -180.44972229 220.71430969 C-182.42187784 221.47441346 -184.39465586 222.23290514 -186.36819458 222.9894104 C-188.04045162 223.63154206 -189.71083656 224.27858723 -191.37863159 224.93222046 C-195.83290188 226.6570123 -199.1964406 227.63443237 -204 227 C-207.38939556 224.86320715 -208.72582557 223.8225233 -210 220 C-210.10501186 217.71157658 -210.1486925 215.42019232 -210.16113281 213.12939453 C-210.16609772 212.43473083 -210.17106262 211.74006714 -210.17617798 211.02435303 C-210.19077829 208.72716276 -210.19759784 206.43004154 -210.203125 204.1328125 C-210.20887799 202.53482054 -210.21463571 200.9368286 -210.22039795 199.33883667 C-210.23090172 195.98809488 -210.23674854 192.63737703 -210.24023438 189.28662109 C-210.24571933 184.99698284 -210.2697498 180.70766196 -210.29820633 176.41812325 C-210.31684645 173.11696451 -210.32203902 169.81588205 -210.32357025 166.51467514 C-210.32659397 164.93345275 -210.33461304 163.35223161 -210.34775543 161.77106094 C-210.36484597 159.55692762 -210.36292884 157.34356739 -210.35644531 155.12939453 C-210.36009094 153.87047394 -210.36373657 152.61155334 -210.36749268 151.31448364 C-209.96313215 147.66748208 -209.27332134 145.85879947 -207 143 C-204.89320374 141.56546021 -204.89320374 141.56546021 -202.47680664 140.44970703 C-201.58567169 140.03626038 -200.69453674 139.62281372 -199.77639771 139.19683838 C-195.34716977 137.28750458 -190.88302725 135.50878374 -186.37109375 133.8046875 C-185.36488983 133.41974625 -184.35868591 133.03480499 -183.32199097 132.63819885 C-181.1579437 131.81092573 -178.99301993 130.98594241 -176.82730103 130.16305542 C-172.1768377 128.39597397 -167.53072433 126.61758138 -162.88426208 124.8400116 C-160.47690158 123.91919352 -158.0693169 122.99896132 -155.66151428 122.07929993 C-143.86303271 117.57178925 -132.08579727 113.01030511 -120.3125 108.4375 C-118.30478799 107.6581539 -116.29705684 106.87885709 -114.28930664 106.09960938 C-111.26872495 104.92720368 -108.24817577 103.75471465 -105.22773743 102.5819397 C-97.76882455 99.68586323 -90.3085235 96.79338129 -82.84765625 93.90234375 C-80.65388843 93.0521687 -78.46012214 92.2019897 -76.26635742 91.35180664 C-73.13431027 90.13800954 -70.00223367 88.92428888 -66.87002563 87.71090698 C-63.99394239 86.5966874 -61.11800668 85.48208847 -58.2421875 84.3671875 C-57.32577988 84.01191483 -56.40937225 83.65664215 -55.4651947 83.29060364 C-47.39473941 80.15889579 -39.33377532 77.00305623 -31.27706909 73.83615112 C-30.36724274 73.47917145 -29.45741638 73.12219177 -28.52001953 72.75439453 C-27.31661423 72.28140427 -27.31661423 72.28140427 -26.08889771 71.79885864 C-24.40843313 71.15619737 -22.70683251 70.56894417 -21 70 C-19.00148224 64.96658925 -19.81550385 58.8168175 -19.8125 53.5 C-19.80025391 52.35917969 -19.78800781 51.21835938 -19.77539062 50.04296875 C-19.77345703 48.94597656 -19.77152344 47.84898438 -19.76953125 46.71875 C-19.76542236 45.71779297 -19.76131348 44.71683594 -19.75708008 43.68554688 C-20.01137459 40.87425077 -20.3875525 39.30668245 -22 37 C-24.1445511 35.6435427 -25.44989666 34.96905083 -28.0078125 35.11296082 C-33.84058783 36.57943602 -39.39899858 38.49044424 -45 40.67578125 C-45.94219894 41.03756973 -46.88439789 41.39935822 -47.85514832 41.77210999 C-50.90601841 42.94565866 -53.95315539 44.12854331 -57 45.3125 C-59.105758 46.12676917 -61.21163456 46.94073178 -63.31762695 47.75439453 C-67.54224402 49.38811344 -71.7650964 51.02629085 -75.98681641 52.66748047 C-80.61089754 54.46388808 -85.24061654 56.24485648 -89.8744812 58.01585388 C-92.94246072 59.18996607 -96.00699325 60.37285999 -99.07055664 61.55844116 C-100.47157744 62.09885048 -101.8739103 62.63587159 -103.27758789 63.16934204 C-105.20341589 63.90240234 -107.12362944 64.64858347 -109.04296875 65.3984375 C-110.10539795 65.80755371 -111.16782715 66.21666992 -112.26245117 66.63818359 C-115.18264911 68.09086032 -116.95322424 69.46923826 -119 72 C-119.58948792 75.48970278 -119.58948792 75.48970278 -119.5625 79.3125 C-119.97651933 89.61107645 -119.97651933 89.61107645 -123 94 C-127.1303886 96.95158301 -131.90137911 98.88669731 -137 99 C-140.70587119 97.36252203 -142.9651558 95.48629922 -145 92 C-145.29235604 89.36714075 -145.42101615 86.97773175 -145.3984375 84.34765625 C-145.40130768 83.61050888 -145.40417786 82.87336151 -145.40713501 82.11387634 C-145.40917226 80.55808746 -145.40366606 79.00227277 -145.39111328 77.4465332 C-145.37507633 75.07379404 -145.39096016 72.70276398 -145.41015625 70.33007812 C-145.40817331 68.81510043 -145.40432858 67.30012379 -145.3984375 65.78515625 C-145.40451019 65.0798024 -145.41058289 64.37444855 -145.4168396 63.64772034 C-145.35450974 59.24861945 -144.72435651 56.47581007 -142 53 C-139.35521405 50.8075449 -136.88063558 49.38977933 -133.67700195 48.17260742 C-132.81806335 47.84260239 -131.95912476 47.51259735 -131.07415771 47.17259216 C-130.13831848 46.82044144 -129.20247925 46.46829071 -128.23828125 46.10546875 C-126.74714813 45.53536827 -126.74714813 45.53536827 -125.22589111 44.95375061 C-121.92360268 43.69254586 -118.61804312 42.44014676 -115.3125 41.1875 C-112.9963881 40.30443269 -110.68055613 39.42063087 -108.36499023 38.53613281 C-104.09020327 36.9033975 -99.81486505 35.27212912 -95.53881168 33.64271355 C-87.22072279 30.47198264 -78.91299236 27.27482452 -70.609375 24.06640625 C-69.66111627 23.70003839 -69.66111627 23.70003839 -68.69370079 23.32626915 C-65.54340096 22.10898708 -62.3932669 20.89127682 -59.24325562 19.67324829 C-55.65554617 18.28597843 -52.06771013 16.89903716 -48.47973633 15.51245117 C-47.34731003 15.07474899 -46.21488373 14.63704681 -45.04814148 14.18608093 C-42.83717598 13.33280888 -40.62553179 12.48129305 -38.41316223 11.63166809 C-33.2487116 9.64801855 -28.09486178 7.64426262 -22.96044922 5.58398438 C-21.53405373 5.01958649 -21.53405373 5.01958649 -20.07884216 4.44378662 C-18.3204393 3.74760787 -16.56599385 3.04130051 -14.81678772 2.32232666 C-9.62605515 0.28442843 -5.58463952 -0.50146238 0 0 Z " fill="#A09D9D" transform="translate(352,75)"/>
</svg>
