<?xml version="1.0" encoding="UTF-8"?>
<svg version="1.1" xmlns="http://www.w3.org/2000/svg" width="500" height="500">
<path d="M0 0 C1 1 1 1 1.11352539 3.68383789 C1.10567017 5.43555298 1.10567017 5.43555298 1.09765625 7.22265625 C1.09282227 9.11274414 1.09282227 9.11274414 1.08789062 11.04101562 C1.07953403 12.38151109 1.07106907 13.72200588 1.0625 15.0625 C1.0574866 16.40689942 1.05292342 17.7513006 1.04882812 19.09570312 C1.03699488 22.39717941 1.02050971 25.69856803 1 29 C-12.93002902 34.7452596 -26.8904791 40.40863709 -40.9303894 45.88024902 C-42.30860948 46.41782334 -43.68615629 46.95712701 -45.0630188 47.49816895 C-46.99837362 48.25787103 -48.93623374 49.01077275 -50.875 49.76171875 C-52.54175781 50.410802 -52.54175781 50.410802 -54.2421875 51.07299805 C-57 52 -57 52 -60 52 C-60 54.97 -60 57.94 -60 61 C-53.42518472 60.45506242 -47.85410864 58.17645414 -41.7734375 55.7109375 C-39.5860436 54.84348241 -37.3985403 53.97630313 -35.2109375 53.109375 C-31.78134903 51.73990417 -28.35348835 50.3663405 -24.92773438 48.98730469 C-21.60974461 47.6549808 -18.28584329 46.33838746 -14.9609375 45.0234375 C-13.42486343 44.39699844 -13.42486343 44.39699844 -11.85775757 43.75790405 C-10.42068954 43.19204086 -10.42068954 43.19204086 -8.95458984 42.61474609 C-7.69719498 42.10964005 -7.69719498 42.10964005 -6.41439819 41.59432983 C-4 41 -4 41 1 42 C1 50.91 1 59.82 1 69 C-5.6 71.64 -12.2 74.28 -19 77 C-18.96777344 78.73507812 -18.93554688 80.47015625 -18.90234375 82.2578125 C-18.9117252 84.54688577 -18.92357326 86.83594987 -18.9375 89.125 C-18.90978516 90.26710938 -18.88207031 91.40921875 -18.85351562 92.5859375 C-18.97391529 100.86943471 -18.97391529 100.86943471 -21.81982422 104.00512695 C-24.14505321 105.5801144 -26.45797232 106.81086718 -29 108 C-30.2576979 108.71307466 -31.51315537 109.43012544 -32.765625 110.15234375 C-33.91546875 110.74144531 -35.0653125 111.33054687 -36.25 111.9375 C-37.41015625 112.54464844 -38.5703125 113.15179688 -39.765625 113.77734375 C-43 115 -43 115 -48 114 C-48 100.14 -48 86.28 -48 72 C-44.535 71.505 -44.535 71.505 -41 71 C-39.16780354 72.83219646 -39.76098672 75.75713741 -39.68359375 78.22265625 C-39.64169922 79.48271484 -39.59980469 80.74277344 -39.55664062 82.04101562 C-39.51682404 83.38150736 -39.47711186 84.7220022 -39.4375 86.0625 C-39.39431958 87.40691523 -39.35070544 88.7513166 -39.30664062 90.09570312 C-39.20014642 93.3970234 -39.0981354 96.69842236 -39 100 C-35.26512223 99.5020163 -33.18762365 99.12508244 -30 97 C-29.50629413 94.42022947 -29.50629413 94.42022947 -29.5234375 91.40625 C-29.4925 90.29378906 -29.4615625 89.18132812 -29.4296875 88.03515625 C-29.41164062 86.86855469 -29.39359375 85.70195312 -29.375 84.5 C-29.3241233 82.19782929 -29.26962078 79.89573494 -29.2109375 77.59375 C-29.18459229 76.05750977 -29.18459229 76.05750977 -29.15771484 74.49023438 C-29 72 -29 72 -28 70 C-26.26586914 69.13037109 -26.26586914 69.13037109 -24.03515625 68.2734375 C-23.23529297 67.9640625 -22.43542969 67.6546875 -21.61132812 67.3359375 C-20.3496582 66.86027344 -20.3496582 66.86027344 -19.0625 66.375 C-18.22525391 66.05015625 -17.38800781 65.7253125 -16.52539062 65.390625 C-10.28264509 63 -10.28264509 63 -8 63 C-8 60.36 -8 57.72 -8 55 C-11.59159073 53.80280309 -12.36956053 54.26536968 -15.80688477 55.61474609 C-16.78121964 55.99198822 -17.7555545 56.36923035 -18.75941467 56.75790405 C-19.80947189 57.17553009 -20.85952911 57.59315613 -21.94140625 58.0234375 C-23.55933327 58.65458969 -23.55933327 58.65458969 -25.20994568 59.29849243 C-28.66429901 60.64857733 -32.11332911 62.01173685 -35.5625 63.375 C-37.89225046 64.28729554 -40.22232479 65.19876447 -42.55273438 66.109375 C-46.81128011 67.77680694 -51.06885829 69.44658226 -55.32250977 71.12646484 C-56.17949966 71.4647934 -57.03648956 71.80312195 -57.91944885 72.15170288 C-60.01015618 72.97323512 -60.01015618 72.97323512 -62 74 C-64.31 74 -66.62 74 -69 74 C-69 65.09 -69 56.18 -69 47 C-57.74804573 41.37402287 -57.74804573 41.37402287 -53.3984375 39.68823242 C-51.93772827 39.11820747 -51.93772827 39.11820747 -50.44750977 38.53666687 C-48.92661743 37.9519738 -48.92661743 37.9519738 -47.375 37.35546875 C-46.30628662 36.94081863 -45.23757324 36.52616852 -44.13647461 36.09895325 C-41.89869564 35.23199406 -39.65999377 34.36741355 -37.42041016 33.50512695 C-33.97962011 32.17964916 -30.54238307 30.84525652 -27.10546875 29.50976562 C-24.92468247 28.66614093 -22.74369989 27.82302346 -20.5625 26.98046875 C-19.53237793 26.58055222 -18.50225586 26.18063568 -17.44091797 25.76860046 C-16.4923291 25.40434464 -15.54374023 25.04008881 -14.56640625 24.66479492 C-13.73052979 24.34234299 -12.89465332 24.01989105 -12.03344727 23.68766785 C-10 23 -10 23 -8 23 C-8 19.7 -8 16.4 -8 13 C-14.77688197 13.53754305 -20.60754361 15.97582492 -26.875 18.5 C-28.46054688 19.12455078 -28.46054688 19.12455078 -30.078125 19.76171875 C-34.86913517 21.33246132 -34.86913517 21.33246132 -39 24 C-39.36760731 26.32817964 -39.70241581 28.6618385 -40 31 C-42.3260857 31.38063221 -44.66055264 31.71269945 -47 32 C-48 31 -48 31 -48.09765625 27.83984375 C-48.08605469 26.55207031 -48.07445312 25.26429688 -48.0625 23.9375 C-48.05347656 22.64714844 -48.04445312 21.35679687 -48.03515625 20.02734375 C-48.02355469 19.02832031 -48.01195312 18.02929688 -48 17 C-39.42166653 13.37776649 -30.79757073 9.88442823 -22.12475586 6.49584961 C-20.73600919 5.95149774 -19.34865815 5.40357337 -17.96264648 4.85229492 C-15.92742175 4.04310345 -13.88814837 3.24501871 -11.84765625 2.44921875 C-10.65148682 1.97830811 -9.45531738 1.50739746 -8.22290039 1.0222168 C-5.22830721 0.07241287 -3.1059791 -0.31368861 0 0 Z " fill="#161616" transform="translate(284,193)"/>
<path d="M0 0 C0.66 0 1.32 0 2 0 C1.67 0.99 1.34 1.98 1 3 C0.77674186 5.05893621 0.59294241 7.12233653 0.4375 9.1875 C0.35371094 10.27417969 0.26992187 11.36085937 0.18359375 12.48046875 C0.12300781 13.31191406 0.06242188 14.14335937 0 15 C-0.33 15 -0.66 15 -1 15 C-1.02685412 12.68756208 -1.04632841 10.3750373 -1.0625 8.0625 C-1.07410156 6.77472656 -1.08570313 5.48695313 -1.09765625 4.16015625 C-1 1 -1 1 0 0 Z " fill="#525252" transform="translate(237,209)"/>
</svg>
