<?xml version="1.0" encoding="UTF-8"?>
<svg version="1.1" xmlns="http://www.w3.org/2000/svg" width="500" height="500">
<path d="M0 0 C3.78583721 2.98033993 6.66061136 6.19975783 7.25447559 11.09963799 C7.25652846 11.85508966 7.25858133 12.61054134 7.26069641 13.3888855 C7.26778122 14.26078522 7.27486603 15.13268494 7.28216553 16.03100586 C7.27968811 16.97967529 7.27721069 17.92834473 7.2746582 18.90576172 C7.2823246 20.41373825 7.2823246 20.41373825 7.29014587 21.95217896 C7.30405473 25.27807557 7.30308399 28.60376524 7.30078125 31.9296875 C7.30466769 34.24130328 7.30900226 36.55291834 7.31376648 38.86453247 C7.32123165 43.71163242 7.3209354 48.55865954 7.31567383 53.40576172 C7.30988133 59.6155277 7.3268037 65.82499521 7.3500185 72.03471184 C7.3647553 76.80967958 7.36562755 81.58457546 7.36250877 86.35956192 C7.36302209 88.6488822 7.3682618 90.93820649 7.37832069 93.22750473 C7.3906653 96.43034968 7.38390468 99.63261347 7.37231445 102.83544922 C7.37995819 103.78007019 7.38760193 104.72469116 7.39547729 105.69793701 C7.34513596 111.995988 6.49359951 116.47869382 1.890625 121.1328125 C-1.96803291 123.62529693 -5.97209053 125.23294122 -10.25 126.875 C-11.13389404 127.22159668 -12.01778809 127.56819336 -12.9284668 127.92529297 C-19.21082326 130.36796235 -25.54278915 132.6489893 -31.9128418 134.85107422 C-37.76475604 136.88286436 -43.4933316 139.15822968 -49.23046875 141.4921875 C-53.24925693 143.11664628 -57.30956332 144.62198875 -61.375 146.125 C-65.46857885 147.64153435 -69.53198042 149.17440924 -73.5 151 C-78.14296281 153.13611597 -82.92682172 154.87747067 -87.71704102 156.6484375 C-92.32443721 158.35665994 -96.88578541 160.14829077 -101.4375 162 C-107.36206178 164.40523733 -113.34480023 166.59055282 -119.40014648 168.64453125 C-124.42729601 170.37223896 -129.34864678 172.32677094 -134.27786255 174.31526184 C-144.04314827 178.24131359 -153.87818993 181.98999529 -163.69985962 185.77209473 C-167.43663669 187.21123811 -171.17290376 188.65169678 -174.90893555 190.09277344 C-175.53973117 190.33608587 -176.17052679 190.57939831 -176.82043743 190.83008385 C-178.10231625 191.32454783 -179.38419154 191.819021 -180.66606331 192.31350327 C-182.60168732 193.06014869 -184.53734369 193.80671016 -186.4730072 194.55325317 C-198.5143746 199.1974875 -210.55464411 203.84454682 -222.59039307 208.50332642 C-224.73004413 209.33118425 -226.86997542 210.1583182 -229.01019287 210.98471069 C-231.97235693 212.12858663 -234.93356288 213.27490821 -237.89453125 214.421875 C-238.76476425 214.75731827 -239.63499725 215.09276154 -240.53160095 215.43836975 C-241.33046219 215.74842453 -242.12932343 216.05847931 -242.95239258 216.37792969 C-243.64206619 216.64466492 -244.33173981 216.91140015 -245.04231262 217.18621826 C-249.60138326 219.00894035 -249.60138326 219.00894035 -252.72509766 222.70288086 C-254.1127245 226.29152516 -254.38716752 228.91808692 -254.3984375 232.75390625 C-254.40230469 234.02041016 -254.40617187 235.28691406 -254.41015625 236.59179688 C-254.39855469 237.90212891 -254.38695312 239.21246094 -254.375 240.5625 C-254.38660156 241.87669922 -254.39820313 243.19089844 -254.41015625 244.54492188 C-254.40435547 246.44274414 -254.40435547 246.44274414 -254.3984375 248.37890625 C-254.39505371 249.5294751 -254.39166992 250.68004395 -254.38818359 251.86547852 C-253.95987216 255.32402598 -253.03823382 257.2039613 -251 260 C-247.48737233 262.73204374 -243.24987992 262.45437714 -239 262 C-235.41520623 261.02641848 -232.01160866 259.67442903 -228.56640625 258.29296875 C-227.55737244 257.90095276 -226.54833862 257.50893677 -225.50872803 257.1050415 C-222.18828147 255.81168996 -218.87557141 254.4996154 -215.5625 253.1875 C-213.22406492 252.27285601 -210.88510771 251.35954593 -208.5456543 250.44750977 C-203.72117808 248.56470752 -198.8995413 246.67489342 -194.08007812 244.77929688 C-187.52461467 242.2026473 -180.96006504 239.65015129 -174.390625 237.109375 C-173.38652084 236.72098953 -172.38241669 236.33260406 -171.34788513 235.93244934 C-169.33830027 235.15523409 -167.32869246 234.37807815 -165.31906128 233.60098267 C-160.25932303 231.64295913 -155.20195454 229.67883722 -150.14453125 227.71484375 C-142.01765137 224.55932813 -133.89012899 221.4054778 -125.76171875 218.25390625 C-124.24331139 217.66517982 -124.24331139 217.66517982 -122.69422913 217.06455994 C-118.6151278 215.4830415 -114.53599202 213.90161196 -110.45681763 212.32028198 C-97.90735172 207.45534576 -85.35926539 202.58689035 -72.81347656 197.71247864 C-64.6044803 194.52384576 -56.39129456 191.3461272 -48.17675781 188.17179871 C-43.09312564 186.20512786 -38.01636146 184.22263374 -32.94891357 182.21463013 C-30.24331746 181.14429326 -27.53351478 180.08494046 -24.82263184 179.02807617 C-23.07969658 178.34378935 -21.34289678 177.64393634 -19.60644531 176.94335938 C-13.42401908 174.54502113 -8.6401447 173.39099265 -2 174 C2.31877069 175.91945364 3.66127941 177.26251689 5.6388092 181.56811523 C7.27096461 186.2124338 7.43031029 190.52431251 7.40405273 195.41015625 C7.41434761 196.76788651 7.41434761 196.76788651 7.42485046 198.15304565 C7.44304128 201.12302667 7.43929246 204.09247563 7.43359375 207.0625 C7.43815878 209.13940603 7.44346531 211.21631055 7.44947815 213.29321289 C7.45839375 217.63726963 7.4560032 221.98114236 7.44604492 226.32519531 C7.43454891 231.88010705 7.45478465 237.43438369 7.48396206 242.98921204 C7.50234353 247.27530928 7.50202783 251.56125481 7.49632454 255.84738159 C7.49617161 257.89501843 7.50219247 259.94266574 7.51461601 261.99026489 C7.52956339 264.85719219 7.51882185 267.72295194 7.50170898 270.58984375 C7.51137695 271.4274826 7.52104492 272.26512146 7.53100586 273.12814331 C7.45967046 278.86134732 6.17775296 283.18831988 3 288 C1.12060547 289.60693359 1.12060547 289.60693359 -1.0078125 290.5234375 C-1.88985352 290.90983398 -2.77189453 291.29623047 -3.68066406 291.69433594 C-4.77604492 292.12520508 -5.87142578 292.55607422 -7 293 C-7.6765564 293.26897095 -8.35311279 293.53794189 -9.0501709 293.81506348 C-14.04950624 295.79419917 -19.07435246 297.70127396 -24.10928345 299.58773804 C-26.91141268 300.63865631 -29.71039028 301.69758089 -32.50854492 302.7590332 C-39.54010253 305.42611298 -46.57345706 308.08837379 -53.61279297 310.73486328 C-57.51844336 312.20427956 -61.41574276 313.69466521 -65.3125 315.1875 C-67.00705322 315.81809326 -67.00705322 315.81809326 -68.73583984 316.46142578 C-74.89755974 318.83857018 -79.91156995 320.82313989 -83 327 C-83.10217314 330.08036893 -83.14363743 333.13892904 -83.1418457 336.21972656 C-83.14532013 337.17598434 -83.14879456 338.13224213 -83.15237427 339.11747742 C-83.15973878 341.19913397 -83.16508044 343.28079841 -83.16866493 345.3624649 C-83.17581815 348.65762231 -83.19147661 351.95262973 -83.21000671 355.2477417 C-83.26252709 364.61842784 -83.31045182 373.98903316 -83.32592773 383.35986328 C-83.33600854 389.08761488 -83.36533804 394.81499145 -83.40724754 400.54259491 C-83.41956313 402.72581902 -83.42467779 404.90909611 -83.42244911 407.09235382 C-83.42009656 410.14954128 -83.44226062 413.20565319 -83.4699707 416.26269531 C-83.46336929 417.16370468 -83.45676788 418.06471405 -83.44996643 418.99302673 C-83.53370605 424.62390704 -84.3648276 427.65016511 -88 432 C-89.74291992 433.47973633 -89.74291992 433.47973633 -91.54296875 434.51953125 C-92.58976807 435.12595459 -92.58976807 435.12595459 -93.65771484 435.74462891 C-98.16152298 438.1584898 -102.7228135 440.44186392 -107.3125 442.6875 C-114.5735521 446.25147873 -121.76409952 449.91503016 -128.91015625 453.703125 C-139.55722599 459.34027802 -150.33440363 464.70668649 -161.125 470.0625 C-164.87874793 471.92609643 -168.63115866 473.79234851 -172.3828125 475.66015625 C-173.66371262 476.29438255 -173.66371262 476.29438255 -174.9704895 476.94142151 C-176.13969437 477.52354652 -176.13969437 477.52354652 -177.33251953 478.11743164 C-178.01911652 478.45811172 -178.7057135 478.79879181 -179.41311646 479.14979553 C-180.9955957 479.89914633 -180.9955957 479.89914633 -182 481 C-186.93637504 481.56707887 -190.91201876 481.5143184 -195.4375 479.375 C-199.08987251 475.98987426 -200.79197533 472.76586227 -201.37752342 467.79531097 C-201.3786545 466.63611397 -201.37978558 465.47691696 -201.38095093 464.28259277 C-201.3856309 463.63241479 -201.39031087 462.98223681 -201.39513266 462.31235647 C-201.40703831 460.14747935 -201.39764342 457.98324048 -201.38818359 455.81835938 C-201.39225129 454.26072319 -201.39759428 452.70308989 -201.40411377 451.14546204 C-201.41776973 446.9244025 -201.41249587 442.70356338 -201.40297651 438.48250008 C-201.39537099 434.06104064 -201.40242801 429.63959984 -201.40713501 425.21813965 C-201.41258996 417.79366678 -201.40540779 410.36928349 -201.39111328 402.94482422 C-201.37478725 394.3662471 -201.38007595 385.7878839 -201.3965925 377.20931196 C-201.41021479 369.83843898 -201.41212339 362.46763033 -201.40427649 355.09674883 C-201.39960406 350.69684373 -201.39896329 346.29703911 -201.40888596 341.8971405 C-201.41756417 337.76023045 -201.41151821 333.62359569 -201.39420319 329.48671532 C-201.39024289 327.97020614 -201.39136457 326.45367372 -201.39799118 324.93717384 C-201.40621529 322.86360757 -201.39587603 320.79091797 -201.38095093 318.71740723 C-201.37981985 317.55821022 -201.37868877 316.39901321 -201.37752342 315.20468903 C-200.82547428 310.51850081 -199.20324346 307.20324346 -195.875 303.875 C-189.92842622 299.99679971 -184.27548166 297.02060824 -177 298 C-172.8788337 299.82098046 -170.56626074 302.33391323 -168 306 C-167.05860826 308.82417523 -166.87527421 310.53617394 -166.87542725 313.45845032 C-166.87286423 314.37104614 -166.87030121 315.28364197 -166.86766052 316.22389221 C-166.86976028 317.22291061 -166.87186005 318.22192902 -166.87402344 319.2512207 C-166.8721553 320.30516022 -166.87028717 321.35909973 -166.86836243 322.44497681 C-166.86435532 324.73670011 -166.8622833 327.02842742 -166.86190033 329.32015419 C-166.85848959 334.18995049 -166.83713385 339.0596127 -166.81666946 343.9293623 C-166.77861676 353.00037071 -166.74738648 362.07123668 -166.74951172 371.14233398 C-166.75029813 377.44833287 -166.72696428 383.75384224 -166.6876297 390.05971336 C-166.677157 392.46343982 -166.67565493 394.86722268 -166.68328094 397.27095985 C-166.69288797 400.63471179 -166.67174607 403.99697796 -166.64355469 407.3605957 C-166.65375137 408.35354141 -166.66394806 409.34648712 -166.67445374 410.36952209 C-166.60680377 414.87089045 -166.47635708 418.01717379 -163.58477783 421.60246277 C-160.03647702 424.89372564 -158.04433866 425.32333493 -153.18896484 425.25439453 C-149.47950108 424.82329245 -146.55054633 423.21694868 -143.3125 421.4375 C-142.62841064 421.07543457 -141.94432129 420.71336914 -141.23950195 420.34033203 C-139.83764267 419.59659443 -138.43908332 418.84660249 -137.04394531 418.09033203 C-135.10747621 417.05733263 -133.15317848 416.08104511 -131.1796875 415.12109375 C-130.02726563 414.54488281 -128.87484375 413.96867187 -127.6875 413.375 C-126.66011719 412.86710937 -125.63273438 412.35921875 -124.57421875 411.8359375 C-121.27294539 409.48146333 -120.47191933 407.79072277 -119 404 C-118.58275133 400.67468371 -118.60314548 397.38276393 -118.63110352 394.03491211 C-118.62733704 393.04720322 -118.62357056 392.05949432 -118.61968994 391.04185486 C-118.61326944 388.90406683 -118.61357623 386.76625023 -118.61987495 384.62846184 C-118.62899364 381.24491689 -118.61875285 377.86192504 -118.60325623 374.47840881 C-118.56317198 364.86118407 -118.56195763 355.24400337 -118.56420898 345.62670898 C-118.56426004 339.73878539 -118.5451184 333.85116133 -118.51487541 327.96331978 C-118.50403698 324.63004978 -118.51618719 321.29734793 -118.52870178 317.96409607 C-118.51979913 315.92128941 -118.50972536 313.87848741 -118.49829102 311.83569336 C-118.50803452 310.90932068 -118.51777802 309.982948 -118.52781677 309.02850342 C-118.48197452 304.92909272 -118.354503 302.59598815 -116.22344971 299.01327515 C-114.11619916 297.10521528 -112.54713906 295.99475189 -109.92651367 294.9519043 C-109.13626801 294.62999115 -108.34602234 294.308078 -107.53182983 293.97640991 C-106.27857407 293.49308701 -106.27857407 293.49308701 -105 293 C-103.7427562 292.4981871 -103.7427562 292.4981871 -102.46011353 291.98623657 C-99.70550224 290.89554407 -96.94205083 289.83029022 -94.17578125 288.76953125 C-93.1530864 288.37481125 -92.13039154 287.98009125 -91.07670593 287.57341003 C-87.82280054 286.31760759 -84.56779834 285.06468684 -81.3125 283.8125 C-68.72642669 278.97111389 -56.15226284 274.11110407 -43.66796875 269.01171875 C-42.74993973 268.63715042 -41.83191071 268.26258209 -40.88606262 267.87666321 C-35.32855756 265.67752352 -35.32855756 265.67752352 -30 263 C-28.0491333 257.07786536 -28.69406329 250.23110781 -28.625 244.0625 C-28.58761719 242.79986328 -28.55023438 241.53722656 -28.51171875 240.23632812 C-28.22144703 232.71249313 -28.22144703 232.71249313 -31.3984375 226.18359375 C-34.64365815 223.4597524 -35.99627398 222.78958421 -40.125 223.0625 C-48.65473022 224.01161738 -56.67078588 227.74374203 -64.51708984 231.06567383 C-73.00587438 234.65390679 -81.59975091 237.9282162 -90.21975708 241.18399048 C-106.3750102 247.28962782 -122.48588068 253.50291193 -138.5625 259.8125 C-142.43222387 261.33090203 -146.30199162 262.84919204 -150.171875 264.3671875 C-151.140681 264.74721924 -152.109487 265.12725098 -153.10765076 265.51879883 C-169.24490823 271.84461378 -185.41334974 278.09044785 -201.57699585 284.34843445 C-208.08586929 286.86911912 -214.59253068 289.39543392 -221.09767151 291.92573547 C-225.55502425 293.65950329 -230.01290391 295.3919142 -234.47079468 297.1242981 C-236.58321431 297.94563763 -238.69538473 298.76761847 -240.80728149 299.59030151 C-259.6347147 306.92384136 -259.6347147 306.92384136 -268.11328125 310.03125 C-269.15911377 310.41603516 -270.20494629 310.80082031 -271.2824707 311.19726562 C-275.47391547 312.43538173 -277.82504264 312.34195058 -282 311 C-285.44528341 308.87982559 -287.68714914 306.93855257 -289 303 C-289.10023724 301.60725078 -289.14767 300.21031738 -289.16062927 298.81402588 C-289.17569771 297.5356485 -289.17569771 297.5356485 -289.19107056 296.23144531 C-289.19690155 295.29945313 -289.20273254 294.36746094 -289.20874023 293.40722656 C-289.21852402 292.42316833 -289.2283078 291.43911011 -289.23838806 290.42523193 C-289.26833939 287.16371006 -289.28972643 283.90222916 -289.30859375 280.640625 C-289.31516558 279.52679192 -289.3217374 278.41295883 -289.32850838 277.26537323 C-289.36110031 271.36996226 -289.38555202 265.47456936 -289.4050293 259.57910156 C-289.42284659 254.69992804 -289.45767484 249.82133197 -289.50756836 244.94238281 C-289.56774096 239.05147081 -289.59850114 233.16109453 -289.60820198 227.26988983 C-289.61676235 225.02599608 -289.6355946 222.78211686 -289.6649456 220.53839874 C-289.70385167 217.39508151 -289.70489541 214.25385237 -289.69702148 211.11035156 C-289.71702209 210.1864563 -289.73702271 209.26256104 -289.75762939 208.31066895 C-289.69374231 202.6191762 -288.65387799 199.43620883 -284.60811901 195.35270119 C-282.57047503 193.63869656 -280.69494645 192.54910212 -278.19604492 191.62329102 C-277.28615814 191.27442337 -276.37627136 190.92555573 -275.43881226 190.56611633 C-274.4625589 190.21558701 -273.48630554 189.86505768 -272.48046875 189.50390625 C-271.44636871 189.11345627 -270.41226868 188.72300629 -269.34683228 188.32072449 C-265.96712192 187.04909875 -262.57759924 185.80613156 -259.1875 184.5625 C-256.82361492 183.67771797 -254.46058487 182.79064839 -252.09838867 181.90136719 C-247.32466142 180.10561116 -242.54783486 178.31851878 -237.76855469 176.53759766 C-229.24049118 173.35108872 -220.75893203 170.04965898 -212.28549194 166.72113037 C-208.9737458 165.42062583 -205.65978046 164.1258245 -202.34593201 162.83068848 C-199.88254668 161.86775817 -197.41948897 160.90399481 -194.95654297 159.93994141 C-186.43054582 156.6027642 -177.90335226 153.26865394 -169.375 149.9375 C-168.53545776 149.60951416 -167.69591553 149.28152832 -166.83093262 148.94360352 C-152.12698796 143.2010164 -137.39993911 137.51950454 -122.65966797 131.87084961 C-121.88319412 131.57305099 -121.10672028 131.27525238 -120.30671692 130.96842957 C-118.88223603 130.42220764 -117.45752794 129.87657759 -116.03251648 129.33174133 C-112.40937393 127.94238727 -108.799492 126.52407492 -105.19824219 125.07885742 C-99.73540095 122.88720882 -94.25057565 120.75441428 -88.76171875 118.62890625 C-87.71909378 118.22469955 -86.67646881 117.82049286 -85.60224915 117.40403748 C-83.4098158 116.55418299 -81.21728404 115.70458236 -79.0246582 114.85522461 C-75.7069814 113.57004657 -72.38959634 112.28411795 -69.07226562 110.99804688 C-68.00071228 110.5827774 -66.92915894 110.16750793 -65.82513428 109.73965454 C-63.71826927 108.92308756 -61.61153664 108.10617891 -59.50494385 107.28890991 C-55.23788975 105.63474267 -50.97040263 103.98301393 -46.68847656 102.36767578 C-45.53186523 101.93052246 -44.37525391 101.49336914 -43.18359375 101.04296875 C-42.24185303 100.69129639 -41.3001123 100.33962402 -40.32983398 99.97729492 C-37.21722749 98.6716506 -34.71050239 96.99721229 -32 95 C-30.515 94.505 -30.515 94.505 -29 94 C-28.87620669 88.39501978 -28.78556982 82.79083878 -28.7253418 77.18481445 C-28.70023001 75.27874893 -28.66613355 73.37277941 -28.62280273 71.46704102 C-28.56200256 68.72388002 -28.53375755 65.98199414 -28.51171875 63.23828125 C-28.48591232 62.38913651 -28.4601059 61.53999176 -28.43351746 60.66511536 C-28.43143323 56.24753542 -28.55604292 54.556422 -31.40551758 50.98510742 C-35.58131351 47.79009503 -38.83544288 47.41404197 -44 48 C-47.564195 48.99893675 -50.95106241 50.35065159 -54.375 51.75 C-55.69757813 52.27207031 -55.69757813 52.27207031 -57.046875 52.8046875 C-59.70349225 53.85642747 -62.35232591 54.92596924 -65 56 C-72.3856299 58.97806442 -79.80111763 61.87444936 -87.22967529 64.74371338 C-89.2453289 65.52233868 -91.26064028 66.30184428 -93.27587891 67.08154297 C-100.85485299 70.01342669 -108.43590729 72.93988267 -116.01823425 75.86308289 C-121.15550661 77.84475215 -126.28783449 79.83898039 -131.41853333 81.83760071 C-135.73597067 83.51677853 -140.06536627 85.16244344 -144.3984375 86.80078125 C-146.68250866 87.67912344 -148.96637364 88.55800201 -151.25 89.4375 C-152.29784668 89.82631348 -153.34569336 90.21512695 -154.42529297 90.61572266 C-155.38322754 90.98874512 -156.34116211 91.36176758 -157.328125 91.74609375 C-158.1624707 92.06247803 -158.99681641 92.3788623 -159.85644531 92.70483398 C-163.16482289 94.70380244 -164.4666634 97.42064288 -165.6809082 101.01635742 C-166.04607559 103.28643012 -166.10979154 105.43878579 -166.10546875 107.73828125 C-166.12029297 108.64126953 -166.13511719 109.54425781 -166.15039062 110.47460938 C-166.17497496 112.35466419 -166.180428 114.23507407 -166.16601562 116.11523438 C-166.30410869 122.00302057 -167.1719889 125.43692968 -171.38891602 129.66137695 C-175.85315648 133.37064055 -181.48762737 135.15779013 -187.25 135.5 C-192.31987438 134.82401675 -195.26001609 132.9485166 -198.6446991 129.15818787 C-200.24232236 126.61412467 -200.37457949 125.20131682 -200.37231445 122.21899414 C-200.38165764 120.80216087 -200.38165764 120.80216087 -200.39118958 119.35670471 C-200.38197983 118.34309372 -200.37277008 117.32948273 -200.36328125 116.28515625 C-200.36402901 114.71331825 -200.36402901 114.71331825 -200.36479187 113.10972595 C-200.36245264 110.8948273 -200.35273307 108.67992593 -200.33618164 106.46508789 C-200.31261272 103.07869624 -200.31561925 99.69309334 -200.32226562 96.30664062 C-200.31668788 94.15364115 -200.3095774 92.00064498 -200.30078125 89.84765625 C-200.30169266 88.83606949 -200.30260406 87.82448273 -200.30354309 86.78224182 C-200.29401108 85.83453415 -200.28447906 84.88682648 -200.2746582 83.91040039 C-200.26774712 82.66607994 -200.26774712 82.66607994 -200.26069641 81.3966217 C-199.79344734 77.10112999 -198.52642795 74.54004559 -195.51782227 71.45361328 C-191.36318019 68.24000096 -186.59475358 66.56743422 -181.71484375 64.7421875 C-180.71325226 64.35693405 -179.71166077 63.9716806 -178.67971802 63.57475281 C-175.43645093 62.33035108 -172.18717906 61.1025477 -168.9375 59.875 C-166.70786057 59.02307764 -164.47861342 58.17012795 -162.24975586 57.31616211 C-156.81161622 55.23570095 -151.36862892 53.16833926 -145.92321777 51.10699463 C-141.83512936 49.55887462 -137.74965442 48.00391172 -133.6640625 46.44921875 C-128.97847153 44.66719477 -124.28938536 42.89470985 -119.59765625 41.12890625 C-115.14286749 39.44672595 -110.71910794 37.69734487 -106.30249023 35.91772461 C-102.88844373 34.55695684 -99.44644319 33.27594678 -96 32 C-90.86372684 30.0870491 -85.75878181 28.11930373 -80.6796875 26.05859375 C-77.18014418 24.6761211 -73.65221382 23.37219665 -70.125 22.0625 C-64.3743197 19.92246314 -58.69338083 17.66252116 -53.0390625 15.27734375 C-42.0918286 10.67612847 -31.04325697 6.49668889 -19.81347656 2.63867188 C-18.27822424 2.09798527 -16.75814261 1.51451468 -15.2421875 0.921875 C-10.03105277 -1.07542403 -5.41998965 -1.73650154 0 0 Z " fill="#F7F7F7" transform="translate(391,10)"/>
<path d="M0 0 C0.8971875 0.309375 0.8971875 0.309375 1.8125 0.625 C1.07 1.0375 0.3275 1.45 -0.4375 1.875 C-3.32362854 3.71162725 -5.13216865 4.88013466 -7.1875 7.625 C-7.79863862 10.7995142 -7.75119857 13.94217558 -7.73339844 17.16699219 C-7.74373611 18.13317978 -7.75407379 19.09936737 -7.76472473 20.09483337 C-7.79421457 23.28734946 -7.79565324 26.47923326 -7.796875 29.671875 C-7.81185243 31.88577488 -7.82857865 34.09966357 -7.84698486 36.3135376 C-7.89071939 42.139796 -7.91067111 47.96590366 -7.92572021 53.79229736 C-7.9452692 59.73792456 -7.98724172 65.68338844 -8.02734375 71.62890625 C-8.10271208 83.29422054 -8.15296354 94.95949839 -8.1875 106.625 C-8.5175 106.625 -8.8475 106.625 -9.1875 106.625 C-9.28015098 93.67303437 -9.35124035 80.72114748 -9.39474869 67.76891804 C-9.41562977 61.75476189 -9.44395749 55.74083236 -9.48925781 49.72680664 C-9.53269613 43.92371071 -9.55663318 38.12083285 -9.56700897 32.3175869 C-9.5744039 30.10277053 -9.58884431 27.88796619 -9.61042023 25.67324257 C-9.63942677 22.57267014 -9.64345706 19.47300058 -9.64160156 16.37231445 C-9.65598267 15.45521698 -9.67036377 14.53811951 -9.68518066 13.5932312 C-9.6584068 9.46277349 -9.55636322 7.22295502 -7.34661865 3.64079285 C-2.91222498 -0.49923857 -2.91222498 -0.49923857 0 0 Z " fill="#E0E0E0" transform="translate(282.1875,305.375)"/>
<path d="M0 0 C2.0625 0.4375 2.0625 0.4375 4 1 C3.2575 1.4125 2.515 1.825 1.75 2.25 C-2.06665977 4.67878349 -4.4968518 7.2452777 -7 11 C-6.58485103 6.1565954 -4.53791301 4.18412171 -1 1 C-0.67 0.67 -0.34 0.34 0 0 Z " fill="#A2A2A2" transform="translate(280,305)"/>
</svg>
